<svg width="100" height="100" viewBox="0 0 100 100" fill="none" xmlns="http://www.w3.org/2000/svg">
<path d="M69 85H31C26.5817 85 23 81.4183 23 77V23C23 18.5817 26.5817 15 31 15H61L77 31V77C77 81.4183 73.4183 85 69 85Z" fill="url(#paint0_linear_39_2077)"/>
<path d="M69 31C64.5817 31 61 27.4183 61 23V15L77 31H69Z" fill="url(#paint1_linear_39_2077)"/>
<g filter="url(#filter0_bii_39_2077)">
<path fill-rule="evenodd" clip-rule="evenodd" d="M23.0865 39C29.4936 39 34.6882 44.4765 34.6882 51.0133C34.6882 57.5501 29.4934 63.0266 23.0865 63.0266C16.5065 63.0266 11.3108 57.5501 11.3108 51.0133C11.3108 44.4765 16.5055 39 23.0865 39ZM23.0865 95C16.1601 95 5.59692 93.5868 3 86.874C3 72.0349 12.8703 64.6154 23.0865 64.2625C33.1302 64.6158 43 72.0352 43 86.874C40.4024 93.5868 29.8393 95 23.0865 95Z" fill="#87DBFF" fill-opacity="0.4"/>
</g>
<g filter="url(#filter1_bii_39_2077)">
<path fill-rule="evenodd" clip-rule="evenodd" d="M39 36C37.8954 36 37 36.8954 37 38C37 39.1046 37.8954 40 39 40H61C62.1046 40 63 39.1046 63 38C63 36.8954 62.1046 36 61 36H39ZM45 50C45 48.8954 45.8954 48 47 48H61C62.1046 48 63 48.8954 63 50C63 51.1046 62.1046 52 61 52H47C45.8954 52 45 51.1046 45 50ZM41 62C41 60.8954 41.8954 60 43 60H61C62.1046 60 63 60.8954 63 62C63 63.1046 62.1046 64 61 64H43C41.8954 64 41 63.1046 41 62Z" fill="#87DBFF" fill-opacity="0.4"/>
</g>
<defs>
<filter id="filter0_bii_39_2077" x="-13" y="23" width="72" height="88" filterUnits="userSpaceOnUse" color-interpolation-filters="sRGB">
<feFlood flood-opacity="0" result="BackgroundImageFix"/>
<feGaussianBlur stdDeviation="8"/>
<feComposite in2="SourceAlpha" operator="in" result="effect1_backgroundBlur_39_2077"/>
<feBlend mode="normal" in="SourceGraphic" in2="effect1_backgroundBlur_39_2077" result="shape"/>
<feColorMatrix in="SourceAlpha" type="matrix" values="0 0 0 0 0 0 0 0 0 0 0 0 0 0 0 0 0 0 127 0" result="hardAlpha"/>
<feOffset dy="2"/>
<feGaussianBlur stdDeviation="1"/>
<feComposite in2="hardAlpha" operator="arithmetic" k2="-1" k3="1"/>
<feColorMatrix type="matrix" values="0 0 0 0 1 0 0 0 0 1 0 0 0 0 1 0 0 0 0.2 0"/>
<feBlend mode="normal" in2="shape" result="effect2_innerShadow_39_2077"/>
<feColorMatrix in="SourceAlpha" type="matrix" values="0 0 0 0 0 0 0 0 0 0 0 0 0 0 0 0 0 0 127 0" result="hardAlpha"/>
<feOffset dy="-2"/>
<feGaussianBlur stdDeviation="1"/>
<feComposite in2="hardAlpha" operator="arithmetic" k2="-1" k3="1"/>
<feColorMatrix type="matrix" values="0 0 0 0 0 0 0 0 0 0.119706 0 0 0 0 0.275 0 0 0 0.02 0"/>
<feBlend mode="normal" in2="effect2_innerShadow_39_2077" result="effect3_innerShadow_39_2077"/>
</filter>
<filter id="filter1_bii_39_2077" x="25" y="24" width="50" height="52" filterUnits="userSpaceOnUse" color-interpolation-filters="sRGB">
<feFlood flood-opacity="0" result="BackgroundImageFix"/>
<feGaussianBlur stdDeviation="6"/>
<feComposite in2="SourceAlpha" operator="in" result="effect1_backgroundBlur_39_2077"/>
<feBlend mode="normal" in="SourceGraphic" in2="effect1_backgroundBlur_39_2077" result="shape"/>
<feColorMatrix in="SourceAlpha" type="matrix" values="0 0 0 0 0 0 0 0 0 0 0 0 0 0 0 0 0 0 127 0" result="hardAlpha"/>
<feOffset dy="2"/>
<feGaussianBlur stdDeviation="1"/>
<feComposite in2="hardAlpha" operator="arithmetic" k2="-1" k3="1"/>
<feColorMatrix type="matrix" values="0 0 0 0 1 0 0 0 0 1 0 0 0 0 1 0 0 0 0.2 0"/>
<feBlend mode="normal" in2="shape" result="effect2_innerShadow_39_2077"/>
<feColorMatrix in="SourceAlpha" type="matrix" values="0 0 0 0 0 0 0 0 0 0 0 0 0 0 0 0 0 0 127 0" result="hardAlpha"/>
<feOffset dy="-2"/>
<feGaussianBlur stdDeviation="1"/>
<feComposite in2="hardAlpha" operator="arithmetic" k2="-1" k3="1"/>
<feColorMatrix type="matrix" values="0 0 0 0 0 0 0 0 0 0.119706 0 0 0 0 0.275 0 0 0 0.02 0"/>
<feBlend mode="normal" in2="effect2_innerShadow_39_2077" result="effect3_innerShadow_39_2077"/>
</filter>
<linearGradient id="paint0_linear_39_2077" x1="23" y1="56" x2="77" y2="56" gradientUnits="userSpaceOnUse">
<stop stop-color="#0038FF"/>
<stop offset="1" stop-color="#0185FF"/>
</linearGradient>
<linearGradient id="paint1_linear_39_2077" x1="61" y1="23" x2="77" y2="23" gradientUnits="userSpaceOnUse">
<stop stop-color="#168DFF"/>
<stop offset="1" stop-color="#64B4FF"/>
</linearGradient>
</defs>
</svg>
