<svg width="100" height="100" viewBox="0 0 100 100" fill="none" xmlns="http://www.w3.org/2000/svg">
<ellipse cx="50" cy="79" rx="36" ry="12" fill="url(#paint0_linear_39_2072)"/>
<g filter="url(#filter0_bii_39_2072)">
<path fill-rule="evenodd" clip-rule="evenodd" d="M50 79C50 79 79 59.9091 79 37.6364C79 30.0415 75.9447 22.7578 70.5061 17.3874C65.0675 12.017 57.6913 9 50 9C42.3087 9 34.9325 12.017 29.4939 17.3874C24.0553 22.7578 21 30.0415 21 37.6364C21 59.9091 50 79 50 79ZM50 47.1818C55.3388 47.1818 59.6667 42.9082 59.6667 37.6364C59.6667 32.3646 55.3388 28.0909 50 28.0909C44.6612 28.0909 40.3333 32.3646 40.3333 37.6364C40.3333 42.9082 44.6612 47.1818 50 47.1818Z" fill="#87DBFF" fill-opacity="0.4"/>
</g>
<defs>
<filter id="filter0_bii_39_2072" x="5" y="-7" width="90" height="102" filterUnits="userSpaceOnUse" color-interpolation-filters="sRGB">
<feFlood flood-opacity="0" result="BackgroundImageFix"/>
<feGaussianBlur stdDeviation="8"/>
<feComposite in2="SourceAlpha" operator="in" result="effect1_backgroundBlur_39_2072"/>
<feBlend mode="normal" in="SourceGraphic" in2="effect1_backgroundBlur_39_2072" result="shape"/>
<feColorMatrix in="SourceAlpha" type="matrix" values="0 0 0 0 0 0 0 0 0 0 0 0 0 0 0 0 0 0 127 0" result="hardAlpha"/>
<feOffset dy="2"/>
<feGaussianBlur stdDeviation="1"/>
<feComposite in2="hardAlpha" operator="arithmetic" k2="-1" k3="1"/>
<feColorMatrix type="matrix" values="0 0 0 0 1 0 0 0 0 1 0 0 0 0 1 0 0 0 0.2 0"/>
<feBlend mode="normal" in2="shape" result="effect2_innerShadow_39_2072"/>
<feColorMatrix in="SourceAlpha" type="matrix" values="0 0 0 0 0 0 0 0 0 0 0 0 0 0 0 0 0 0 127 0" result="hardAlpha"/>
<feOffset dy="-2"/>
<feGaussianBlur stdDeviation="1"/>
<feComposite in2="hardAlpha" operator="arithmetic" k2="-1" k3="1"/>
<feColorMatrix type="matrix" values="0 0 0 0 0 0 0 0 0 0.119706 0 0 0 0 0.275 0 0 0 0.02 0"/>
<feBlend mode="normal" in2="effect2_innerShadow_39_2072" result="effect3_innerShadow_39_2072"/>
</filter>
<linearGradient id="paint0_linear_39_2072" x1="14" y1="79" x2="86" y2="79" gradientUnits="userSpaceOnUse">
<stop stop-color="#0038FF"/>
<stop offset="1" stop-color="#0185FF"/>
</linearGradient>
</defs>
</svg>
