<svg width="45" height="40" viewBox="0 0 45 40" fill="none" xmlns="http://www.w3.org/2000/svg">
<path fill-rule="evenodd" clip-rule="evenodd" d="M43.9762 22.8351C43.0948 19.2424 39.971 14.053 30.3588 14.053C28.3563 14.053 23.0696 14.6119 22.1083 14.6119C22.1884 14.2925 23.1495 11.5781 23.3099 11.1789C22.6691 10.8595 20.9868 10.5402 18.5838 10.4604C12.9765 10.3007 6.16792 12.6957 1.92256 15.8094C1.44171 17.2466 0.560758 19.482 0 20.8392C4.4056 18.5239 10.8939 16.1289 15.8602 15.6498C19.2245 15.3305 20.5062 15.9692 20.9068 16.2088C21.3071 16.3684 18.0231 17.4862 18.1032 18.7636C18.1032 20.3602 24.8318 18.6039 29.2374 18.7636C36.8471 19.0031 40.2113 21.6377 41.413 25.39C42.9349 30.0208 40.2113 34.4914 36.8471 36.1678C41.0123 35.1297 45.4981 29.142 43.9762 22.8351Z" fill="#ED1B2E"/>
<path fill-rule="evenodd" clip-rule="evenodd" d="M18.5833 10.4605C20.9864 10.5401 22.6685 10.8595 23.3093 11.179C23.1491 11.5781 22.1878 14.2926 22.1078 14.612C23.0691 14.612 28.3558 14.0531 30.3582 14.0531C39.9705 14.0531 43.0945 19.2423 43.9757 22.8352C44.216 23.8729 44.296 24.831 44.296 25.7891C44.8568 23.1543 44.8568 19.9609 44.5363 18.2046C43.9758 14.6119 40.7717 9.58218 31.9602 9.42248C29.9577 9.42248 24.671 9.98137 23.7899 9.98137C23.8698 9.66196 24.8312 6.94753 24.9113 6.54848C24.3508 6.22907 22.9088 5.67017 20.5057 5.59039C14.8185 5.51046 8.00961 7.8257 3.76425 10.9393C3.28368 12.3764 2.48263 14.4521 1.92188 15.8094C6.16738 12.6959 12.976 10.3008 18.5833 10.4605Z" fill="#00AEEF"/>
<path fill-rule="evenodd" clip-rule="evenodd" d="M44.3769 12.5362C43.5757 9.6621 40.4519 5.03176 33.5629 4.87192C31.5605 4.87192 26.5141 5.27111 25.3924 5.35089C25.4726 5.1114 26.2735 2.71624 26.4337 2.31719C25.9532 1.67851 24.5112 1.11961 22.1083 1.03955C16.421 0.880119 9.69229 3.43499 5.44692 6.62839C4.96621 8.06546 3.76465 11.0994 3.76465 10.9396C8.01001 7.82597 14.8189 5.51074 20.5061 5.59066C22.9092 5.6703 24.3512 6.22934 24.9117 6.54875C24.8316 6.9478 23.8702 9.66238 23.7903 9.98165C24.6714 9.98165 29.9581 9.42275 31.9606 9.42275C40.7721 9.58232 43.9762 14.6121 44.5367 18.2049C44.6969 19.083 44.777 20.4403 44.6969 21.8774C45.1777 18.8434 45.0976 15.4903 44.3769 12.5362Z" fill="white"/>
<path fill-rule="evenodd" clip-rule="evenodd" d="M26.4341 2.3172C26.5943 1.918 26.6744 1.51867 26.7547 1.35911C26.1938 0.87999 24.6718 0.0817412 22.4289 0.00181938C16.8218 -0.0779639 10.0932 2.47676 5.84765 5.59053C5.76746 5.90966 5.60736 6.22921 5.44727 6.62827C9.69249 3.51478 16.5014 0.87999 22.1085 1.03956C24.4315 1.11962 25.8732 1.67838 26.4341 2.3172ZM44.217 11.2589C43.5762 8.62424 40.5321 3.83405 33.6433 3.83405C31.3201 3.83405 26.995 4.15346 25.7132 4.31317C25.553 4.87206 25.3926 5.27126 25.3926 5.35104C26.5143 5.27126 31.5607 4.87206 33.5632 4.87206C40.4521 5.03177 43.5761 9.66225 44.3771 12.5364C44.5369 13.255 44.6174 13.8937 44.7773 14.6123C44.6174 13.2547 44.4571 12.0573 44.217 11.2589Z" fill="#2E4EA4"/>
<path fill-rule="evenodd" clip-rule="evenodd" d="M7.12969 23.1544C8.65172 21.3981 10.7342 20.2804 12.737 20.2005C14.8032 20.1341 16.5366 20.4546 18.122 20.7477C18.4419 20.8068 18.7558 20.8649 19.0652 20.9184C19.1683 20.939 19.2709 20.9595 19.3728 20.98C20.8527 21.2769 22.1969 21.5467 23.4708 21.3974C23.776 21.3366 23.9417 21.0439 24.0387 20.8727C24.069 20.8193 24.0925 20.7777 24.1116 20.7587L24.2718 20.2797L24.7524 20.3594C26.7551 20.5991 30.3597 21.7966 32.0418 22.5949C32.5224 22.3555 33.1632 22.2755 33.7239 22.515C34.2844 22.7546 34.7651 23.1537 35.0054 23.6328L35.0423 23.6466C36.3159 24.1225 37.8114 24.6814 38.0495 25.7885C38.6902 25.9481 39.331 26.1875 39.8917 26.427L40.052 26.5071C40.3723 26.5867 40.5325 26.8262 40.5325 27.1456V27.2256C40.5325 27.8642 39.6514 28.9819 38.9303 29.461L38.69 29.5411V29.6204C38.6101 30.0201 38.0495 30.7385 37.7289 30.898C37.2483 31.1373 36.3672 31.1373 35.7264 31.0579C34.8453 32.0159 32.362 32.5742 31.4009 32.6542L31.0802 32.7342L31.0302 32.634C31.1004 32.7751 31.1707 32.9234 31.2406 33.1331C31.4009 33.6121 31.5612 34.2512 31.7212 34.8896C31.7568 35.0136 31.7923 35.1455 31.8279 35.2775C31.9526 35.74 32.0774 36.2026 32.202 36.3271C32.4422 36.726 32.7625 36.8856 33.804 37.0456C34.6851 37.2051 35.2456 38.0035 35.5662 39.201L35.7264 39.9995H30.2795L30.1993 39.9194C28.7576 39.1216 26.5947 36.8062 25.9539 35.2093C24.9126 36.1672 24.5923 36.6461 24.5923 36.7261C24.5923 36.8062 24.9925 37.1258 25.7136 37.1258C26.4345 37.1258 26.8352 37.8442 26.9954 39.2812V39.9996H21.7885L21.6284 39.9196C20.7504 39.6811 19.8725 38.8879 19.6285 38.3293C19.6276 38.3248 19.6268 38.3203 19.6259 38.3158V38.2433C19.6259 38.1155 19.6131 37.9495 19.5977 37.7503C19.5746 37.4515 19.5457 37.0778 19.5457 36.6464C19.5457 36.008 19.6259 35.2096 19.786 34.4911C19.2252 34.4911 18.5844 34.5712 18.0237 34.7306C17.9436 35.1295 17.8634 35.609 17.8634 35.609C17.7033 35.928 17.6232 36.3275 17.6232 36.567V36.7264C17.7033 36.886 17.7033 36.886 18.264 37.046L18.7447 37.126C19.2007 37.2395 19.4944 37.6361 19.6259 38.3158V38.3233C19.6268 38.3253 19.6276 38.3273 19.6285 38.3293C19.68 38.6017 19.7058 38.9191 19.7058 39.2814V39.9999H14.4993L14.3391 39.9198C13.6983 39.601 13.1375 39.0419 12.7371 38.403L12.2564 37.6052C12.0161 37.1262 11.5356 36.3278 11.0549 35.5293L10.9747 35.6092C10.0135 36.0081 9.53295 36.407 9.45277 36.7266V36.8066C9.45277 37.0461 9.613 37.2055 9.69305 37.2055C9.71003 37.214 9.72791 37.2225 9.7466 37.2313C9.90422 37.306 10.1191 37.4078 10.334 37.7644C10.5741 38.084 10.6542 38.6423 10.6542 39.0419C10.6542 39.1217 10.6342 39.2015 10.6142 39.2814C10.5942 39.3613 10.5741 39.4412 10.5741 39.5209L10.4941 39.9999H5.5276L5.36736 39.6803C4.56646 38.7224 4.32617 37.445 4.32617 36.2476C4.32617 34.9702 4.56646 33.7728 4.96698 32.7349L5.84807 30.8184L6.16854 30.18C6.08836 30.1 5.92826 29.9405 5.68797 29.8605L5.36736 29.7011L5.28731 29.3815C5.28731 29.1821 5.2673 29.0025 5.24729 28.8229C5.22728 28.6433 5.20726 28.4637 5.20726 28.2641C5.20726 26.4277 5.92812 24.6714 7.12969 23.1544ZM35.8863 27.1861C36.1467 27.0464 36.4069 26.9067 36.5272 26.9067C37.5682 26.9067 38.6097 27.1462 38.8501 27.3059C38.8501 27.7052 38.2895 28.3438 38.0492 28.5035C37.6533 28.7007 37.1353 28.6543 36.6272 28.6088C36.3126 28.5806 36.0018 28.5528 35.7262 28.5833C35.1654 28.6631 35.0853 29.0624 35.0853 29.3815C34.6352 29.5738 34.0947 29.6632 33.552 29.7529C32.7425 29.8868 31.928 30.0215 31.4006 30.4995C31.0001 30.0206 30.5195 29.621 29.5581 29.3815C29.7183 29.0624 30.2791 28.3436 31.0001 28.1839C28.517 27.6252 25.1525 30.0206 23.3903 32.815C22.2689 34.6507 21.9485 36.0081 21.7882 36.7266C21.3076 36.6465 21.0674 34.0923 21.7882 31.8563C22.2689 30.0206 22.7495 29.0624 23.7109 27.4656C23.2301 27.3857 21.4679 28.9027 21.0674 30.4195C20.026 30.4995 18.8245 29.9406 18.1036 29.2221C17.4628 28.6631 16.8219 28.1043 16.4215 28.264C17.5427 30.4194 16.4215 34.0123 15.7005 35.6091C15.4938 35.506 15.4288 35.2617 15.3119 34.8227C15.0664 33.9006 14.5921 32.1192 12.0959 28.9823C10.8944 27.3856 9.05185 27.4655 8.1709 27.625C8.57128 24.1124 11.6152 22.1963 15.4602 22.6753C16.9407 22.8597 18.3499 23.1271 19.6193 23.3678C21.6466 23.7524 23.3171 24.0693 24.3516 23.8729C25.3667 23.6943 25.6695 23.2052 25.8575 22.9016C25.9217 22.798 25.9724 22.7159 26.0336 22.6753C28.0361 22.9947 30.9199 24.1124 32.2016 24.831C32.522 23.7132 33.6434 24.1124 33.8836 25.0705C35.005 25.3899 35.8861 25.7091 36.367 25.9486C36.6072 26.1083 36.8475 26.4276 36.5272 26.4276C34.284 26.1881 35.0049 27.2261 35.2452 27.4656C35.3655 27.4656 35.626 27.3258 35.8863 27.1861Z" fill="white"/>
</svg>
