<svg width="40" height="36" viewBox="0 0 40 36" fill="none" xmlns="http://www.w3.org/2000/svg">
<path fill-rule="evenodd" clip-rule="evenodd" d="M39.09 20.5518C38.3065 17.3183 35.5298 12.6478 26.9856 12.6478C25.2056 12.6478 20.5063 13.1509 19.6518 13.1509C19.723 12.8634 20.5773 10.4204 20.7199 10.0611C20.1503 9.77365 18.6549 9.48631 16.5189 9.41451C11.5347 9.27077 5.4826 11.4263 1.70894 14.2286C1.28152 15.522 0.498452 17.534 0 18.7554C3.91609 16.6717 9.68342 14.5161 14.098 14.0849C17.0884 13.7976 18.2278 14.3724 18.5838 14.5881C18.9397 14.7317 16.0205 15.7377 16.0918 16.8873C16.0918 18.3243 22.0727 16.7436 25.9888 16.8873C32.753 17.1029 35.7434 19.4741 36.8115 22.8511C38.1643 27.0188 35.7434 31.0424 32.753 32.5512C36.4554 31.6168 40.4428 26.228 39.09 20.5518Z" fill="#ED1B2E"/>
<path fill-rule="evenodd" clip-rule="evenodd" d="M16.5191 9.41444C18.6552 9.48612 20.1505 9.77359 20.7201 10.0611C20.5776 10.4203 19.7232 12.8633 19.652 13.1508C20.5065 13.1508 25.2058 12.6478 26.9857 12.6478C35.53 12.6478 38.3068 17.3181 39.0902 20.5517C39.3037 21.4857 39.3749 22.3479 39.3749 23.2102C39.8733 20.8389 39.8733 17.9648 39.5885 16.3841C39.0903 13.1507 36.2421 8.62396 28.4097 8.48023C26.6297 8.48023 21.9304 8.98324 21.1472 8.98324C21.2183 8.69577 22.0729 6.25278 22.144 5.89363C21.6458 5.60616 20.3641 5.10315 18.2279 5.03135C13.1726 4.95942 7.12031 7.04313 3.34665 9.8454C2.91948 11.1388 2.20744 13.0069 1.70898 14.2285C5.48276 11.4264 11.5348 9.27071 16.5191 9.41444Z" fill="#00AEEF"/>
<path fill-rule="evenodd" clip-rule="evenodd" d="M39.4455 11.2826C38.7333 8.69586 35.9566 4.52856 29.8331 4.3847C28.0531 4.3847 23.5674 4.74397 22.5704 4.81578C22.6417 4.60024 23.3536 2.44459 23.496 2.08544C23.0688 1.51063 21.7871 1.00762 19.6512 0.935568C14.5958 0.792083 8.61472 3.09146 4.84106 5.96553C4.41376 7.25889 3.3457 9.98948 3.3457 9.84562C7.11936 7.04335 13.1717 4.95964 18.227 5.03157C20.3631 5.10325 21.6449 5.60638 22.1431 5.89385C22.0719 6.253 21.2173 8.69611 21.1463 8.98346C21.9295 8.98346 26.6288 8.48045 28.4088 8.48045C36.2412 8.62406 39.0893 13.1509 39.5875 16.3844C39.73 17.1747 39.8011 18.3963 39.73 19.6896C40.1573 16.959 40.0861 13.9412 39.4455 11.2826Z" fill="white"/>
<path fill-rule="evenodd" clip-rule="evenodd" d="M23.4967 2.08548C23.6392 1.7262 23.7103 1.3668 23.7817 1.22319C23.2832 0.791991 21.9302 0.0735671 19.9366 0.00163745C14.9525 -0.0701675 8.97147 2.22909 5.19769 5.03148C5.12641 5.3187 4.98411 5.60629 4.8418 5.96544C8.61533 3.1633 14.6677 0.791991 19.6518 0.935601C21.7167 1.00766 22.9982 1.51054 23.4967 2.08548ZM39.3038 10.133C38.7342 7.76181 36.0283 3.45064 29.905 3.45064C27.8399 3.45064 23.9953 3.73811 22.856 3.88185C22.7136 4.38486 22.571 4.74413 22.571 4.81594C23.568 4.74413 28.0537 4.38486 29.8337 4.38486C35.9572 4.52859 38.7341 8.69602 39.4461 11.2827C39.5882 11.9295 39.6597 12.5043 39.8019 13.151C39.6597 11.9292 39.5173 10.8515 39.3038 10.133Z" fill="#2E4EA4"/>
<path fill-rule="evenodd" clip-rule="evenodd" d="M11.32 18.1806C9.53981 18.2525 7.68868 19.2584 6.33576 20.8391C5.2677 22.2044 4.62694 23.7851 4.62694 25.4378C4.62694 25.797 4.6981 26.0845 4.6981 26.4435L4.76925 26.7311L5.05424 26.8746C5.26783 26.9466 5.41014 27.0901 5.48141 27.1622L5.19655 27.7367L4.41336 29.4615C4.05734 30.3956 3.84375 31.4733 3.84375 32.6229C3.84375 33.7006 4.05734 34.8503 4.76925 35.7124L4.91168 36H9.32635L9.3975 35.569C9.3975 35.4255 9.46866 35.2814 9.46866 35.1379C9.46866 34.7782 9.3975 34.2757 9.18404 33.9881C8.97033 33.6291 8.75674 33.557 8.61431 33.4851C8.54316 33.4851 8.40072 33.3416 8.40072 33.1261V33.054C8.472 32.7664 8.89917 32.4074 9.75352 32.0484L9.8248 31.9765C10.2521 32.6951 10.6793 33.4137 10.8929 33.8448L11.3202 34.5628C11.6761 35.1379 12.1745 35.641 12.7441 35.928L12.8865 36H17.5145V35.3534C17.5145 34.2037 17.2298 33.557 16.6602 33.4136L16.2329 33.3415C15.7346 33.1975 15.7346 33.1975 15.6633 33.0539V32.9104C15.6633 32.6949 15.7346 32.3354 15.8769 32.0483C15.8769 32.0483 15.9482 31.6167 16.0193 31.2577C16.5178 31.1142 17.0874 31.0421 17.5858 31.0421C17.4435 31.6887 17.3722 32.4073 17.3722 32.9819C17.3722 33.629 17.4435 34.1316 17.4435 34.4191V34.4911C17.6571 34.9941 18.4403 35.7123 19.2235 35.9277L19.3658 35.9998H23.9942V35.3532C23.8517 34.0599 23.4956 33.4133 22.8548 33.4133C22.2138 33.4133 21.8581 33.1257 21.8581 33.0537C21.8581 32.9816 22.1428 32.5506 23.0684 31.6885C23.638 33.1257 25.5606 35.2095 26.8421 35.9276L26.9134 35.9997H31.7551L31.6126 35.281C31.3277 34.2033 30.8294 33.4847 30.0463 33.3411C29.1205 33.1971 28.8358 33.0535 28.6223 32.6945C28.4799 32.5505 28.3373 31.9038 28.1949 31.4008C28.0527 30.8262 27.9101 30.251 27.7677 29.8199C27.6967 29.6044 27.6253 29.4609 27.5541 29.3169L27.6251 29.4609L27.9101 29.3889C28.7645 29.3169 30.9719 28.8144 31.7551 27.9523C32.3247 28.0237 33.1079 28.0237 33.535 27.8083C33.82 27.6648 34.3184 27.0182 34.3894 26.6585V26.5871L34.603 26.515C35.244 26.0838 36.0272 25.0779 36.0272 24.5031V24.4312C36.0272 24.1437 35.8848 23.9282 35.6 23.8565L35.4576 23.7845C34.9591 23.5689 34.3895 23.3534 33.82 23.2098C33.6063 22.2037 32.2533 21.7007 31.1142 21.2697C30.9006 20.8385 30.4733 20.4793 29.9751 20.2636C29.4766 20.0481 28.907 20.12 28.4799 20.3356C26.9846 19.617 23.7806 18.5393 22.0004 18.3235L21.5732 18.2519L21.4308 18.6829C21.3597 18.7549 21.2172 19.1859 20.8612 19.2577C19.6509 19.4014 18.3691 19.1141 16.9451 18.8267C15.3073 18.5398 13.5273 18.1087 11.32 18.1806Z" fill="#2E4EA4"/>
<path fill-rule="evenodd" clip-rule="evenodd" d="M32.4673 24.216C32.2535 24.216 31.5417 24.719 31.3277 24.719C31.1141 24.5034 30.4734 23.5692 32.4673 23.7848C32.7521 23.7848 32.5385 23.4974 32.3249 23.3537C31.8975 23.1381 31.1143 22.8508 30.1175 22.5633C29.9039 21.701 28.9071 21.3418 28.6224 22.3478C27.483 21.701 24.9196 20.6951 23.1397 20.4077C22.9261 20.5514 22.8549 21.27 21.6446 21.4855C20.1492 21.773 17.1587 20.8388 13.7411 20.4077C10.3233 19.9766 7.61761 21.701 7.26172 24.8625C8.04479 24.7188 9.68258 24.6469 10.7506 26.084C14.0258 30.2513 13.3851 31.7605 13.9547 32.0481C14.5956 30.611 15.5922 27.3774 14.5956 25.4375C14.9515 25.2938 15.5212 25.7967 16.0908 26.2998C16.7316 26.9464 17.7996 27.4494 18.7252 27.3775C19.0813 26.0123 20.6476 24.647 21.0751 24.719C20.2205 26.1561 19.7933 27.0185 19.366 28.6706C18.7252 30.683 18.9388 32.9818 19.366 33.0538C19.5084 32.4072 19.7933 31.1855 20.7901 29.5334C22.3565 27.0185 25.3472 24.8626 27.5543 25.3655C26.9134 25.5092 26.415 26.1561 26.2726 26.4433C27.1272 26.6588 27.5543 27.0185 27.9103 27.4494C28.6935 26.7308 30.1889 26.8744 31.1857 26.4433C31.1857 26.1561 31.2568 25.7967 31.7553 25.7249C32.3962 25.6531 33.2504 25.9404 33.8202 25.6531C34.0338 25.5093 34.5322 24.9346 34.5322 24.5752C34.3184 24.4315 33.3927 24.216 32.4673 24.216Z" fill="white"/>
</svg>
