<svg width="100" height="100" viewBox="0 0 100 100" fill="none" xmlns="http://www.w3.org/2000/svg">
<path d="M85.5624 22.459L88.2031 4.8272C88.3325 3.95959 87.7363 3.15134 86.8731 3.01772C86.0089 2.88781 85.2039 3.48634 85.0736 4.35302L81.7839 26.3054L75.8418 66.0415L67.836 66.0446H24.089L24.089 66.0415L18.1452 26.3085L14.8582 4.35302C14.7288 3.48541 13.9201 2.89246 13.0559 3.01772C12.1917 3.14763 11.5956 3.95956 11.7259 4.8272L14.3628 22.459L20.8841 66.0427H18.8304C15.7721 66.0427 13.2924 68.5332 13.2924 71.6057C13.2924 74.6791 15.773 77.1687 18.8304 77.1687H66.3925H81.0945C84.1557 77.1687 86.6354 74.6782 86.6354 71.6057C86.6354 68.5322 84.1548 66.0427 81.0945 66.0427H79.0436L85.5624 22.459Z" fill="url(#paint0_linear_39_2197)"/>
<g filter="url(#filter0_bii_39_2197)">
<path d="M60.1141 23.9811C60.1141 29.5878 55.5871 34.1336 50.002 34.1336C44.417 34.1336 39.89 29.5876 39.89 23.9811C39.89 18.3737 44.417 13.8276 50.002 13.8276C55.5871 13.8276 60.1141 18.3737 60.1141 23.9811Z" fill="#87DBFF" fill-opacity="0.4"/>
<path d="M87.7852 24.8767C89.423 23.2082 89.4017 20.5266 87.7399 18.8849C87.4885 18.6371 87.2103 18.4404 86.921 18.2678C85.6749 17.6959 84.9886 17.6114 83.7915 17.7936C83.0494 17.9718 82.3451 18.342 81.7693 18.9266L70.2653 30.6548L57.996 36.782H42.0029L29.7337 30.6548L18.2297 18.9266C17.6548 18.3411 16.9524 17.9718 16.2074 17.7936C14.5759 17.4603 13.9243 17.6036 13.0779 18.2678C12.7886 18.4385 12.5104 18.638 12.2591 18.8849C10.5973 20.5264 10.5788 23.2081 12.2138 24.8767L24.2165 37.1073C24.5455 37.4423 24.9244 37.7188 25.3431 37.9294L38.0044 44.2533C38.0256 44.5057 38.0386 44.7646 38.0386 45.0244V58.8804L33.3424 62.7732C32.0873 63.8171 31.4514 65.4401 31.6603 67.0657L35.0017 92.8466C35.3113 95.2489 37.3548 96.9999 39.7024 96.9999C39.9066 96.9999 40.1127 96.9869 40.3198 96.96C42.9224 96.6195 44.7561 94.2272 44.4168 91.6179L43.1478 81.8134L42.3246 75.135C41.7563 70.5248 45.3527 66.4578 49.9978 66.4578C54.6429 66.4578 58.2393 70.5248 57.671 75.135L56.8478 81.8134L55.5788 91.6179C55.2424 94.2282 57.0733 96.6196 59.6759 96.96C59.8857 96.9869 60.089 96.9999 60.2933 96.9999C62.6436 96.9999 64.6845 95.2489 64.9968 92.8466L68.3396 67.0626C68.5494 65.4369 67.9126 63.8167 66.6538 62.771L61.9605 58.8782V45.0223C61.9605 44.7588 61.9817 44.5008 62.0131 44.2428L74.656 37.9263C75.0746 37.7157 75.4536 37.4391 75.7826 37.1042L87.7852 24.8767Z" fill="#87DBFF" fill-opacity="0.4"/>
</g>
<defs>
<filter id="filter0_bii_39_2197" x="-5" y="-2.17236" width="110" height="115.172" filterUnits="userSpaceOnUse" color-interpolation-filters="sRGB">
<feFlood flood-opacity="0" result="BackgroundImageFix"/>
<feGaussianBlur stdDeviation="8"/>
<feComposite in2="SourceAlpha" operator="in" result="effect1_backgroundBlur_39_2197"/>
<feBlend mode="normal" in="SourceGraphic" in2="effect1_backgroundBlur_39_2197" result="shape"/>
<feColorMatrix in="SourceAlpha" type="matrix" values="0 0 0 0 0 0 0 0 0 0 0 0 0 0 0 0 0 0 127 0" result="hardAlpha"/>
<feOffset dy="2"/>
<feGaussianBlur stdDeviation="1"/>
<feComposite in2="hardAlpha" operator="arithmetic" k2="-1" k3="1"/>
<feColorMatrix type="matrix" values="0 0 0 0 1 0 0 0 0 1 0 0 0 0 1 0 0 0 0.2 0"/>
<feBlend mode="normal" in2="shape" result="effect2_innerShadow_39_2197"/>
<feColorMatrix in="SourceAlpha" type="matrix" values="0 0 0 0 0 0 0 0 0 0 0 0 0 0 0 0 0 0 127 0" result="hardAlpha"/>
<feOffset dy="-2"/>
<feGaussianBlur stdDeviation="1"/>
<feComposite in2="hardAlpha" operator="arithmetic" k2="-1" k3="1"/>
<feColorMatrix type="matrix" values="0 0 0 0 0 0 0 0 0 0.119706 0 0 0 0 0.275 0 0 0 0.02 0"/>
<feBlend mode="normal" in2="effect2_innerShadow_39_2197" result="effect3_innerShadow_39_2197"/>
</filter>
<linearGradient id="paint0_linear_39_2197" x1="11.708" y1="40.0843" x2="88.2207" y2="40.0843" gradientUnits="userSpaceOnUse">
<stop stop-color="#0038FF"/>
<stop offset="1" stop-color="#0185FF"/>
</linearGradient>
</defs>
</svg>
