<svg width="114" height="100" viewBox="0 0 114 100" fill="none" xmlns="http://www.w3.org/2000/svg">
<path fill-rule="evenodd" clip-rule="evenodd" d="M79.3015 74.6262V85.3677C84.6201 86.2122 90.3862 87.3589 93.8069 88.6814C95.8732 89.4797 95.0633 91 92.8481 91H30.4678C28.2527 91 26.8014 89.0464 28.6904 87.8926C31.265 86.3201 36.2007 85.0686 44.1907 84.396V64.1682H34.9178C27.243 64.1682 21 57.9673 21 50.345C21 47.5034 21.8637 44.7715 23.4992 42.4441L23.8449 41.9529L23.5853 41.4116C22.6971 39.5535 22.2476 37.5615 22.2476 35.4912C22.2476 28.6067 27.4173 22.7192 34.2754 21.7961L34.8492 21.719L35.0833 21.1946C37.322 16.2148 42.3125 13 47.7906 13C55.344 13 61.4499 18.8706 61.6967 26.3713L61.7192 27.0317L62.3313 27.2888C67.0299 29.2561 70.2675 33.6055 70.7777 38.637L70.8198 39.0837L71.1792 39.3562C72.1409 40.084 72.9831 40.9204 73.7097 41.8364C74.0153 41.6968 74.2983 41.6067 74.7811 41.5454C75.0895 41.5063 75.4783 41.4788 76.0052 41.4575C76.0649 41.4561 76.1237 41.4524 76.1834 41.4485C76.2578 41.4436 76.3323 41.4387 76.4087 41.4387C80.2034 41.4387 83.4684 43.6943 84.9207 46.926C89.4754 47.5405 92.9842 51.4143 92.9842 56.1016C92.9842 56.9546 92.8667 57.7808 92.6493 58.5654C92.571 58.8457 92.4809 59.1208 92.3781 59.3899C92.2889 59.6213 92.192 59.8484 92.0862 60.0706C93.1419 61.5713 93.7618 63.395 93.7618 65.3638C93.7618 70.4802 89.589 74.6262 84.436 74.6262H79.3015ZM57.6228 64.1714H52.4991V83.9351C54.1815 83.8853 55.8982 83.8586 57.6463 83.8586C63.0824 83.8586 68.2305 84.1086 72.8264 84.5552V74.6294H67.0867C62.2304 74.6294 58.2446 70.9424 57.802 66.2354C57.6845 65.3745 57.6414 64.9202 57.6228 64.1714Z" fill="url(#paint0_linear_39_2136)"/>
<g filter="url(#filter0_bii_39_2136)">
<path d="M21.512 10.0001C26.4067 10.0001 29.9891 13.9785 30.3474 18.3333C33.6134 19.3158 36 22.3747 36 26.0001C36 30.4184 32.462 34 28.0975 34H7.46335C2.99901 34 0 31.0353 0 27.3334C0 24.2376 2.15381 21.1957 5.26823 20.6668C5.26823 15.3336 10.0977 13.1114 13.6097 14.889C14.9269 12.2222 17.7596 10 21.5122 10L21.512 10.0001Z" fill="#87DBFF" fill-opacity="0.4"/>
</g>
<g filter="url(#filter1_bii_39_2136)">
<path d="M104.346 58C107.471 57.9523 110.386 56.3969 112.193 53.8126C114.001 51.2283 114.485 47.925 113.496 44.9198C112.508 41.9143 110.164 39.5672 107.189 38.6006C108.912 36.4249 109.439 33.5156 108.591 30.8612C107.742 28.2068 105.631 26.1643 102.977 25.4277C100.322 24.6914 97.4802 25.3599 95.4166 27.206C94.0132 22.7144 90.3526 19.3225 85.8137 18.309C81.2749 17.2955 76.5477 18.8139 73.4127 22.2923C70.2777 25.7703 69.2108 30.6802 70.6142 35.1719C66.9969 36.1054 64.0563 38.7705 62.7376 42.311C61.4185 45.8518 61.8875 49.822 63.9932 52.9469C66.0993 56.0718 69.5769 57.958 73.3097 57.9996L104.346 58Z" fill="#87DBFF" fill-opacity="0.4"/>
</g>
<defs>
<filter id="filter0_bii_39_2136" x="-16" y="-6" width="68" height="56" filterUnits="userSpaceOnUse" color-interpolation-filters="sRGB">
<feFlood flood-opacity="0" result="BackgroundImageFix"/>
<feGaussianBlur stdDeviation="8"/>
<feComposite in2="SourceAlpha" operator="in" result="effect1_backgroundBlur_39_2136"/>
<feBlend mode="normal" in="SourceGraphic" in2="effect1_backgroundBlur_39_2136" result="shape"/>
<feColorMatrix in="SourceAlpha" type="matrix" values="0 0 0 0 0 0 0 0 0 0 0 0 0 0 0 0 0 0 127 0" result="hardAlpha"/>
<feOffset dy="2"/>
<feGaussianBlur stdDeviation="1"/>
<feComposite in2="hardAlpha" operator="arithmetic" k2="-1" k3="1"/>
<feColorMatrix type="matrix" values="0 0 0 0 1 0 0 0 0 1 0 0 0 0 1 0 0 0 0.2 0"/>
<feBlend mode="normal" in2="shape" result="effect2_innerShadow_39_2136"/>
<feColorMatrix in="SourceAlpha" type="matrix" values="0 0 0 0 0 0 0 0 0 0 0 0 0 0 0 0 0 0 127 0" result="hardAlpha"/>
<feOffset dy="-2"/>
<feGaussianBlur stdDeviation="1"/>
<feComposite in2="hardAlpha" operator="arithmetic" k2="-1" k3="1"/>
<feColorMatrix type="matrix" values="0 0 0 0 0 0 0 0 0 0.119706 0 0 0 0 0.275 0 0 0 0.02 0"/>
<feBlend mode="normal" in2="effect2_innerShadow_39_2136" result="effect3_innerShadow_39_2136"/>
</filter>
<filter id="filter1_bii_39_2136" x="46" y="2" width="84" height="72" filterUnits="userSpaceOnUse" color-interpolation-filters="sRGB">
<feFlood flood-opacity="0" result="BackgroundImageFix"/>
<feGaussianBlur stdDeviation="8"/>
<feComposite in2="SourceAlpha" operator="in" result="effect1_backgroundBlur_39_2136"/>
<feBlend mode="normal" in="SourceGraphic" in2="effect1_backgroundBlur_39_2136" result="shape"/>
<feColorMatrix in="SourceAlpha" type="matrix" values="0 0 0 0 0 0 0 0 0 0 0 0 0 0 0 0 0 0 127 0" result="hardAlpha"/>
<feOffset dy="2"/>
<feGaussianBlur stdDeviation="1"/>
<feComposite in2="hardAlpha" operator="arithmetic" k2="-1" k3="1"/>
<feColorMatrix type="matrix" values="0 0 0 0 1 0 0 0 0 1 0 0 0 0 1 0 0 0 0.2 0"/>
<feBlend mode="normal" in2="shape" result="effect2_innerShadow_39_2136"/>
<feColorMatrix in="SourceAlpha" type="matrix" values="0 0 0 0 0 0 0 0 0 0 0 0 0 0 0 0 0 0 127 0" result="hardAlpha"/>
<feOffset dy="-2"/>
<feGaussianBlur stdDeviation="1"/>
<feComposite in2="hardAlpha" operator="arithmetic" k2="-1" k3="1"/>
<feColorMatrix type="matrix" values="0 0 0 0 0 0 0 0 0 0.119706 0 0 0 0 0.275 0 0 0 0.02 0"/>
<feBlend mode="normal" in2="effect2_innerShadow_39_2136" result="effect3_innerShadow_39_2136"/>
</filter>
<linearGradient id="paint0_linear_39_2136" x1="21.9487" y1="58.2562" x2="94.0513" y2="58.2562" gradientUnits="userSpaceOnUse">
<stop stop-color="#0038FF"/>
<stop offset="1" stop-color="#0185FF"/>
</linearGradient>
</defs>
</svg>
