<svg width="100" height="100" viewBox="0 0 100 100" fill="none" xmlns="http://www.w3.org/2000/svg">
<path fill-rule="evenodd" clip-rule="evenodd" d="M67.9629 85.7472C64.6454 84.7599 61.2591 83.8212 57.8996 82.8636C55.3372 82.1332 53.7182 79.7999 54.0408 77.3235C54.5747 73.2258 55.131 69.0827 55.5493 64.9224C55.8209 63.0632 56.9198 61.6616 59.0224 60.3846C62.4408 57.9696 67.2497 54.7806 71.0954 52.0637C74.3375 49.9817 78.8533 54.9196 74.8311 57.9695L71.6975 60.1833C69.1337 61.9946 70.9779 64.2347 73.3993 62.5241C76.0716 60.8445 78.6355 59.0333 81.3418 57.1214C85.4724 54.2032 84.6865 49.9649 85.5079 45.2163C87.6394 34.1235 94.1087 37.056 93.9986 45.6787C93.9498 53.0076 93.5076 60.406 86.9556 65.0349L73.8515 74.2925C72.2848 75.3994 71.6877 76.8633 71.5246 78.8543C71.0766 81.0465 70.8795 83.2698 70.4315 85.4621C70.1872 86.2599 69.075 86.0035 67.9629 85.7472Z" fill="black"/>
<path fill-rule="evenodd" clip-rule="evenodd" d="M67.9629 85.7472C64.6454 84.7599 61.2591 83.8212 57.8996 82.8636C55.3372 82.1332 53.7182 79.7999 54.0408 77.3235C54.5747 73.2258 55.131 69.0827 55.5493 64.9224C55.8209 63.0632 56.9198 61.6616 59.0224 60.3846C62.4408 57.9696 67.2497 54.7806 71.0954 52.0637C74.3375 49.9817 78.8533 54.9196 74.8311 57.9695L71.6975 60.1833C69.1337 61.9946 70.9779 64.2347 73.3993 62.5241C76.0716 60.8445 78.6355 59.0333 81.3418 57.1214C85.4724 54.2032 84.6865 49.9649 85.5079 45.2163C87.6394 34.1235 94.1087 37.056 93.9986 45.6787C93.9498 53.0076 93.5076 60.406 86.9556 65.0349L73.8515 74.2925C72.2848 75.3994 71.6877 76.8633 71.5246 78.8543C71.0766 81.0465 70.8795 83.2698 70.4315 85.4621C70.1872 86.2599 69.075 86.0035 67.9629 85.7472Z" fill="url(#paint0_linear_39_2120)"/>
<path fill-rule="evenodd" clip-rule="evenodd" d="M32.0381 85.7472C35.3556 84.7599 38.7419 83.8212 42.1014 82.8636C44.6637 82.1332 46.2828 79.7999 45.9602 77.3235C45.4263 73.2258 44.87 69.0827 44.4517 64.9224C44.1801 63.0632 43.0812 61.6616 40.9786 60.3846C37.5601 57.9696 32.7513 54.7806 28.9055 52.0637C25.6635 49.9817 21.1477 54.9196 25.1699 57.9695L28.3034 60.1833C30.8673 61.9946 29.0231 64.2347 26.6017 62.5241C23.9293 60.8445 21.3655 59.0333 18.6592 57.1214C14.5286 54.2032 15.3145 49.9649 14.493 45.2163C12.3615 34.1235 5.89228 37.056 6.00236 45.6787C6.05118 53.0076 6.49335 60.406 13.0454 65.0349L26.1494 74.2925C27.7162 75.3994 28.3133 76.8633 28.4764 78.8543C28.9244 81.0465 29.1215 83.2698 29.5695 85.4621C29.8138 86.2599 30.9259 86.0035 32.0381 85.7472Z" fill="black"/>
<path fill-rule="evenodd" clip-rule="evenodd" d="M32.0381 85.7472C35.3556 84.7599 38.7419 83.8212 42.1014 82.8636C44.6637 82.1332 46.2828 79.7999 45.9602 77.3235C45.4263 73.2258 44.87 69.0827 44.4517 64.9224C44.1801 63.0632 43.0812 61.6616 40.9786 60.3846C37.5601 57.9696 32.7513 54.7806 28.9055 52.0637C25.6635 49.9817 21.1477 54.9196 25.1699 57.9695L28.3034 60.1833C30.8673 61.9946 29.0231 64.2347 26.6017 62.5241C23.9293 60.8445 21.3655 59.0333 18.6592 57.1214C14.5286 54.2032 15.3145 49.9649 14.493 45.2163C12.3615 34.1235 5.89228 37.056 6.00236 45.6787C6.05118 53.0076 6.49335 60.406 13.0454 65.0349L26.1494 74.2925C27.7162 75.3994 28.3133 76.8633 28.4764 78.8543C28.9244 81.0465 29.1215 83.2698 29.5695 85.4621C29.8138 86.2599 30.9259 86.0035 32.0381 85.7472Z" fill="url(#paint1_linear_39_2120)"/>
<g filter="url(#filter0_bii_39_2120)">
<path fill-rule="evenodd" clip-rule="evenodd" d="M50.0875 14C56.4946 14 61.6892 19.4765 61.6892 26.0133C61.6892 32.5501 56.4944 38.0266 50.0875 38.0266C43.5074 38.0266 38.3117 32.5501 38.3117 26.0133C38.3117 19.4765 43.5065 14 50.0875 14ZM50.0875 70C43.161 70 32.5979 68.5868 30.001 61.874C30.001 47.0349 39.8712 39.6154 50.0875 39.2625C60.1311 39.6158 70.001 47.0352 70.001 61.874C67.4033 68.5868 56.8403 70 50.0875 70Z" fill="#87DBFF" fill-opacity="0.4"/>
</g>
<defs>
<filter id="filter0_bii_39_2120" x="14.001" y="-2" width="72" height="88" filterUnits="userSpaceOnUse" color-interpolation-filters="sRGB">
<feFlood flood-opacity="0" result="BackgroundImageFix"/>
<feGaussianBlur stdDeviation="8"/>
<feComposite in2="SourceAlpha" operator="in" result="effect1_backgroundBlur_39_2120"/>
<feBlend mode="normal" in="SourceGraphic" in2="effect1_backgroundBlur_39_2120" result="shape"/>
<feColorMatrix in="SourceAlpha" type="matrix" values="0 0 0 0 0 0 0 0 0 0 0 0 0 0 0 0 0 0 127 0" result="hardAlpha"/>
<feOffset dy="2"/>
<feGaussianBlur stdDeviation="1"/>
<feComposite in2="hardAlpha" operator="arithmetic" k2="-1" k3="1"/>
<feColorMatrix type="matrix" values="0 0 0 0 1 0 0 0 0 1 0 0 0 0 1 0 0 0 0.2 0"/>
<feBlend mode="normal" in2="shape" result="effect2_innerShadow_39_2120"/>
<feColorMatrix in="SourceAlpha" type="matrix" values="0 0 0 0 0 0 0 0 0 0 0 0 0 0 0 0 0 0 127 0" result="hardAlpha"/>
<feOffset dy="-2"/>
<feGaussianBlur stdDeviation="1"/>
<feComposite in2="hardAlpha" operator="arithmetic" k2="-1" k3="1"/>
<feColorMatrix type="matrix" values="0 0 0 0 0 0 0 0 0 0.119706 0 0 0 0 0.275 0 0 0 0.02 0"/>
<feBlend mode="normal" in2="effect2_innerShadow_39_2120" result="effect3_innerShadow_39_2120"/>
</filter>
<linearGradient id="paint0_linear_39_2120" x1="93.4882" y1="65.85" x2="54.5138" y2="65.85" gradientUnits="userSpaceOnUse">
<stop stop-color="#0038FF"/>
<stop offset="1" stop-color="#0185FF"/>
</linearGradient>
<linearGradient id="paint1_linear_39_2120" x1="6.5138" y1="65.85" x2="45.4882" y2="65.85" gradientUnits="userSpaceOnUse">
<stop stop-color="#0038FF"/>
<stop offset="1" stop-color="#0185FF"/>
</linearGradient>
</defs>
</svg>
