<svg width="10" height="16" fill="none" xmlns="http://www.w3.org/2000/svg"><path d="M5.019 8.257c2.205 0 4.003-1.776 4.003-3.954S7.224.35 5.02.35C2.813.35.99 2.125.99 4.303s1.798 3.954 4.028 3.954zm0-5.587c.91 0 1.654.734 1.654 1.633 0 .9-.743 1.634-1.654 1.634a1.647 1.647 0 01-1.655-1.634c-.024-.9.72-1.633 1.655-1.633zm1.606 8.83a7.63 7.63 0 002.325-.946c.552-.332.72-1.066.36-1.61-.336-.545-1.079-.71-1.63-.355a5.145 5.145 0 01-5.394 0 1.203 1.203 0 00-1.63.355 1.172 1.172 0 00.407 1.586c.72.45 1.51.758 2.325.947l-2.23 2.202a1.147 1.147 0 00.84 1.965c.312 0 .6-.119.839-.332l2.206-2.178 2.205 2.178c.456.45 1.199.45 1.654 0a1.147 1.147 0 000-1.633L6.625 11.5z" fill="#80838C"/></svg>