<svg width="48" height="40" fill="none" xmlns="http://www.w3.org/2000/svg"><path d="M13.965 21.362c1.911.67 3.393 1.768 4.444 3.298 1.051 1.529 1.577 3.393 1.577 5.59 0 2.868-.908 5.21-2.724 7.026C15.446 39.092 13.2 40 10.524 40c-2.772 0-5.066-.908-6.882-2.724C1.826 35.364.918 33.023.918 30.251c0-1.338.143-2.676.43-4.014.382-1.434 1.1-3.49 2.15-6.165L10.238 0h9.032l-5.304 21.362zm27.096 0c1.912.67 3.393 1.768 4.445 3.298 1.051 1.529 1.577 3.393 1.577 5.59 0 2.868-.908 5.21-2.724 7.026C42.543 39.092 40.297 40 37.62 40c-2.771 0-5.065-.908-6.881-2.724-1.816-1.912-2.724-4.253-2.724-7.025 0-1.338.143-2.676.43-4.014.382-1.434 1.099-3.49 2.15-6.165L37.334 0h9.032l-5.305 21.362z" fill="#fff"/></svg>