<svg width="16" height="16" fill="none" xmlns="http://www.w3.org/2000/svg"><path fill-rule="evenodd" clip-rule="evenodd" d="M1.75 7.176c3.887-1.689 6.474-2.81 7.774-3.355C13.222 2.278 14 2.011 14.499 2c.111 0 .356.022.522.155.134.112.167.256.19.367.021.111.044.344.021.522-.2 2.11-1.066 7.23-1.51 9.585-.189 1-.555 1.332-.91 1.366-.778.066-1.367-.511-2.11-1-1.178-.766-1.833-1.244-2.977-1.999-1.322-.866-.467-1.344.288-2.121.2-.2 3.61-3.31 3.677-3.588.01-.033.01-.166-.067-.233-.078-.066-.189-.044-.278-.022-.122.022-1.988 1.266-5.62 3.72-.533.367-1.01.545-1.443.534-.478-.011-1.389-.267-2.077-.489-.833-.267-1.5-.41-1.444-.877.033-.245.367-.49.989-.744z" fill="currentColor"/></svg>