<svg width="1286" height="725" fill="none" xmlns="http://www.w3.org/2000/svg"><path d="M160 461h24.157l73.06-117H233.06L160 461z" fill="#ED1B2E"/><path d="M684 626h24.157l73.06-117H757.06L684 626z" fill="url(#paint0_linear_264_6789)" fill-opacity=".1"/><path d="M0 218h24.157l73.06-117H73.06L0 218z" fill="url(#paint1_linear_264_6789)" fill-opacity=".2"/><path d="M1353.03 0h77L1179 402h-77L1353.03 0z" fill="url(#paint2_linear_264_6789)"/><path d="M871.356 364h77L723.141 725h-77l225.215-361z" fill="url(#paint3_linear_264_6789)" fill-opacity=".2"/><path d="M600.868 101h133.763L425.115 597H291.352l309.516-496z" fill="url(#paint4_linear_264_6789)"/><defs><linearGradient id="paint0_linear_264_6789" x1="732.608" y1="509" x2="732.608" y2="582.58" gradientUnits="userSpaceOnUse"><stop stop-color="#fff"/><stop offset="1" stop-color="#fff" stop-opacity=".4"/></linearGradient><linearGradient id="paint1_linear_264_6789" x1="48.608" y1="101" x2="48.608" y2="174.58" gradientUnits="userSpaceOnUse"><stop/><stop offset="1"/></linearGradient><linearGradient id="paint2_linear_264_6789" x1="1266.01" y1="0" x2="1266.01" y2="252.813" gradientUnits="userSpaceOnUse"><stop stop-color="#fff" stop-opacity=".24"/><stop offset="1" stop-color="#fff" stop-opacity=".08"/></linearGradient><linearGradient id="paint3_linear_264_6789" x1="797.248" y1="364" x2="797.248" y2="591.029" gradientUnits="userSpaceOnUse"><stop/><stop offset="1"/></linearGradient><linearGradient id="paint4_linear_264_6789" x1="512.992" y1="101" x2="512.992" y2="412.929" gradientUnits="userSpaceOnUse"><stop stop-color="#4BB5F1"/><stop offset="1" stop-color="#387DCD"/></linearGradient></defs></svg>