<svg width="417" height="353" fill="none" xmlns="http://www.w3.org/2000/svg"><path d="M29.195 224.307H40.95l35.549-56.928H64.744l-35.549 56.928z" fill="#ED1B2E"/><path d="M163 304.59h11.754l35.548-56.928h-11.753L163 304.59z" fill="url(#paint0_linear_264_10526)" fill-opacity=".1"/><path d="M0 106.071h11.754l35.548-56.928H35.548L0 106.07z" fill="url(#paint1_linear_264_10526)" fill-opacity=".2"/><path d="M379.532 0h37.465L294.856 195.6h-37.465L379.532 0z" fill="url(#paint2_linear_264_10526)"/><path d="M254.09 177.109h37.466L181.973 352.76h-37.465L254.09 177.109z" fill="url(#paint3_linear_264_10526)" fill-opacity=".2"/><path d="M183.373 49.143h65.085l-150.6 241.336H32.773l150.6-241.336z" fill="url(#paint4_linear_264_10526)"/><defs><linearGradient id="paint0_linear_264_10526" x1="186.651" y1="247.662" x2="186.651" y2="283.464" gradientUnits="userSpaceOnUse"><stop stop-color="#fff"/><stop offset="1" stop-color="#fff" stop-opacity=".4"/></linearGradient><linearGradient id="paint1_linear_264_10526" x1="23.651" y1="49.143" x2="23.651" y2="84.944" gradientUnits="userSpaceOnUse"><stop/><stop offset="1"/></linearGradient><linearGradient id="paint2_linear_264_10526" x1="337.194" y1="0" x2="337.194" y2="123.01" gradientUnits="userSpaceOnUse"><stop stop-color="#fff" stop-opacity=".24"/><stop offset="1" stop-color="#fff" stop-opacity=".08"/></linearGradient><linearGradient id="paint3_linear_264_10526" x1="218.032" y1="177.109" x2="218.032" y2="287.574" gradientUnits="userSpaceOnUse"><stop/><stop offset="1"/></linearGradient><linearGradient id="paint4_linear_264_10526" x1="140.616" y1="49.143" x2="140.616" y2="200.917" gradientUnits="userSpaceOnUse"><stop stop-color="#4BB5F1"/><stop offset="1" stop-color="#387DCD"/></linearGradient></defs></svg>