<svg width="1112" height="384" fill="none" xmlns="http://www.w3.org/2000/svg"><path d="M816 164h137l-562 900H254l562-900z" fill="url(#paint0_linear_466_1658)"/><path d="M975 40h137L550 940H413L975 40z" fill="url(#paint1_linear_466_1658)"/><path d="M114 252h24.157l73.06-117H187.06L114 252z" fill="#ED1B2E"/><path d="M31 73h24.157l73.06-117H104.06L31 73z" fill="url(#paint2_linear_466_1658)" fill-opacity=".2"/><path d="M251.027-241h77L77 161H0l251.027-402z" fill="url(#paint3_linear_466_1658)"/><path d="M918 310h77l-562 900h-77l562-900z" fill="#ED1B2E"/><defs><linearGradient id="paint0_linear_466_1658" x1="603.5" y1="164" x2="603.5" y2="730" gradientUnits="userSpaceOnUse"><stop stop-color="#fff" stop-opacity=".06"/><stop offset="1" stop-color="#fff" stop-opacity="0"/></linearGradient><linearGradient id="paint1_linear_466_1658" x1="762.5" y1="40" x2="762.5" y2="606" gradientUnits="userSpaceOnUse"><stop stop-color="#4BB5F1"/><stop offset="1" stop-color="#387DCD"/></linearGradient><linearGradient id="paint2_linear_466_1658" x1="79.608" y1="-44" x2="79.608" y2="29.58" gradientUnits="userSpaceOnUse"><stop/><stop offset="1"/></linearGradient><linearGradient id="paint3_linear_466_1658" x1="164.013" y1="-241" x2="164.013" y2="11.813" gradientUnits="userSpaceOnUse"><stop stop-color="#fff" stop-opacity=".24"/><stop offset="1" stop-color="#fff" stop-opacity=".08"/></linearGradient></defs></svg>