<svg width="232" height="40" fill="none" xmlns="http://www.w3.org/2000/svg"><path fill-rule="evenodd" clip-rule="evenodd" d="M43.976 22.835c-.881-3.592-4.005-8.782-13.617-8.782-2.003 0-7.29.56-8.25.56.08-.32 1.04-3.035 1.2-3.434-.64-.32-2.322-.639-4.725-.718-5.607-.16-12.416 2.235-16.661 5.349C1.442 17.247.56 19.482 0 20.84c4.406-2.316 10.894-4.71 15.86-5.19 3.364-.32 4.646.32 5.047.56.4.159-2.884 1.276-2.804 2.554 0 1.596 6.729-.16 11.134 0 7.61.24 10.974 2.874 12.176 6.626 1.522 4.631-1.202 9.102-4.566 10.778 4.165-1.038 8.651-7.026 7.13-13.333z" fill="#ED1B2E"/><path fill-rule="evenodd" clip-rule="evenodd" d="M18.583 10.46c2.403.08 4.086.4 4.726.718-.16.4-1.121 3.114-1.201 3.433.961 0 6.248-.558 8.25-.558 9.613 0 12.736 5.189 13.618 8.782.24 1.037.32 1.995.32 2.954.56-2.635.56-5.829.24-7.585-.56-3.593-3.764-8.622-12.576-8.782-2.002 0-7.289.559-8.17.559.08-.32 1.041-3.034 1.121-3.433-.56-.32-2.002-.878-4.405-.958-5.688-.08-12.496 2.235-16.742 5.349-.48 1.437-1.281 3.513-1.842 4.87 4.245-3.114 11.054-5.509 16.661-5.349z" fill="#00AEEF"/><path fill-rule="evenodd" clip-rule="evenodd" d="M44.378 12.536c-.801-2.874-3.925-7.504-10.814-7.664-2.003 0-7.049.399-8.17.479.08-.24.88-2.635 1.04-3.034-.48-.639-1.922-1.198-4.325-1.278C16.422.88 9.693 3.435 5.448 6.63c-.48 1.436-1.682 4.47-1.682 4.31C8.01 7.826 14.82 5.51 20.507 5.59c2.403.08 3.845.64 4.406.959-.08.399-1.042 3.113-1.122 3.432.881 0 6.168-.559 8.17-.559 8.812.16 12.016 5.19 12.577 8.783.16.878.24 2.235.16 3.672.48-3.034.4-6.387-.32-9.341z" fill="#fff"/><path fill-rule="evenodd" clip-rule="evenodd" d="M26.432 2.317c.16-.399.24-.798.32-.958C26.193.88 24.67.082 22.428.002 16.82-.078 10.09 2.477 5.846 5.59c-.08.319-.24.638-.4 1.037C9.69 3.515 16.498.88 22.105 1.04c2.323.08 3.765.638 4.326 1.277zm17.783 8.942c-.64-2.635-3.685-7.425-10.574-7.425-2.323 0-6.648.32-7.93.48-.16.558-.32.957-.32 1.037 1.121-.08 6.168-.479 8.17-.479 6.89.16 10.013 4.79 10.814 7.664.16.719.24 1.358.4 2.076-.16-1.357-.32-2.555-.56-3.353z" fill="#2E4EA4"/><path fill-rule="evenodd" clip-rule="evenodd" d="M7.132 23.154c1.522-1.756 3.604-2.874 5.607-2.954 2.066-.066 3.8.254 5.385.547.32.06.634.118.943.171l.308.062c1.48.297 2.824.566 4.098.417.305-.06.47-.353.568-.524a.654.654 0 01.072-.115l.16-.479.481.08c2.003.24 5.608 1.437 7.29 2.236.48-.24 1.121-.32 1.682-.08.56.24 1.041.639 1.281 1.118l.037.013c1.274.476 2.77 1.035 3.007 2.142.641.16 1.282.4 1.843.639l.16.08c.32.08.48.319.48.638v.08c0 .639-.88 1.757-1.602 2.236l-.24.08v.08c-.08.399-.64 1.117-.961 1.277-.48.24-1.362.24-2.003.16-.88.958-3.364 1.516-4.325 1.596l-.32.08-.05-.1c.07.14.14.29.21.499.16.479.32 1.118.48 1.756.036.124.071.256.107.388.125.463.25.925.374 1.05.24.399.56.558 1.602.718.881.16 1.442.958 1.762 2.156l.16.798h-5.447l-.08-.08c-1.442-.798-3.604-3.113-4.245-4.71-1.041.958-1.362 1.437-1.362 1.517 0 .08.4.4 1.122.4.72 0 1.121.718 1.281 2.155v.718H21.79l-.16-.08c-.878-.238-1.756-1.031-2-1.59l-.002-.014v-.072c0-.128-.013-.294-.028-.493a13.791 13.791 0 01-.052-1.104c0-.638.08-1.437.24-2.155-.56 0-1.202.08-1.762.24-.08.398-.16.878-.16.878a2.4 2.4 0 00-.24.958v.16c.08.159.08.159.64.319l.48.08c.457.113.75.51.882 1.19v.007l.003.006c.051.273.077.59.077.952V40H14.5l-.16-.08c-.64-.32-1.201-.878-1.602-1.517l-.48-.798c-.24-.48-.722-1.277-1.202-2.076l-.08.08c-.962.399-1.442.798-1.522 1.117v.08c0 .24.16.4.24.4l.054.025c.157.075.372.177.587.533.24.32.32.878.32 1.278 0 .08-.02.16-.04.24-.02.08-.04.159-.04.239l-.08.479H5.53l-.16-.32c-.802-.958-1.042-2.235-1.042-3.433 0-1.277.24-2.474.64-3.512l.882-1.917.32-.638c-.08-.08-.24-.24-.48-.32l-.32-.16-.08-.319c0-.2-.02-.379-.04-.558-.02-.18-.04-.36-.04-.56 0-1.836.72-3.592 1.922-5.109zm28.755 4.032c.26-.14.52-.28.641-.28 1.041 0 2.083.24 2.323.4 0 .399-.56 1.037-.8 1.197-.397.197-.915.151-1.423.105-.314-.028-.625-.056-.9-.025-.562.08-.642.48-.642.798-.45.192-.99.282-1.533.372-.81.133-1.624.268-2.151.746-.4-.479-.882-.878-1.843-1.118.16-.319.721-1.038 1.442-1.197-2.483-.56-5.848 1.836-7.61 4.63-1.121 1.836-1.442 3.194-1.602 3.912-.48-.08-.72-2.634 0-4.87.48-1.836.961-2.794 1.923-4.39-.481-.08-2.243 1.436-2.644 2.953-1.041.08-2.243-.479-2.963-1.197-.641-.56-1.282-1.118-1.683-.958 1.122 2.155 0 5.748-.72 7.345-.207-.103-.272-.348-.39-.787-.245-.922-.719-2.703-3.215-5.84-1.202-1.597-3.044-1.517-3.925-1.357.4-3.513 3.444-5.429 7.29-4.95 1.48.184 2.889.452 4.158.692 2.027.385 3.698.702 4.733.505 1.015-.178 1.317-.667 1.505-.97.065-.104.115-.186.177-.227 2.002.32 4.886 1.437 6.168 2.156.32-1.118 1.441-.719 1.682.24 1.121.319 2.002.638 2.483.877.24.16.48.48.16.48-2.243-.24-1.522.798-1.282 1.037.12 0 .38-.14.641-.28z" fill="#fff"/><path d="M75.374 6.2V16h-2.772v-3.822h-3.78V16H66.05V6.2h2.772v3.682h3.78V6.2h2.772zm5.046 2.086c1.26 0 2.221.29 2.884.868.662.57.994 1.447.994 2.632V16H81.82v-.98c-.383.737-1.13 1.106-2.24 1.106-.588 0-1.097-.103-1.526-.308-.43-.205-.756-.48-.98-.826a2.279 2.279 0 01-.322-1.204c0-.719.275-1.274.826-1.666.55-.401 1.4-.602 2.548-.602h1.512c-.047-.803-.584-1.204-1.61-1.204-.364 0-.733.06-1.106.182-.374.112-.691.27-.952.476l-.896-1.806c.42-.28.928-.495 1.526-.644a7.167 7.167 0 011.82-.238zm-.098 6.16c.308 0 .578-.075.812-.224.233-.15.401-.369.504-.658v-.658H80.49c-.775 0-1.162.257-1.162.77 0 .233.088.42.266.56.177.14.42.21.728.21zm10.35-6.16c.69 0 1.316.163 1.876.49.57.317 1.017.775 1.344 1.372.336.588.504 1.274.504 2.058 0 .784-.168 1.475-.504 2.072a3.519 3.519 0 01-1.344 1.372 3.738 3.738 0 01-1.876.476c-.887 0-1.591-.266-2.114-.798v3.388h-2.66V8.412h2.534v.756c.495-.588 1.241-.882 2.24-.882zm-.56 5.726c.467 0 .85-.159 1.148-.476.299-.327.448-.77.448-1.33s-.15-.999-.448-1.316c-.299-.327-.681-.49-1.148-.49-.467 0-.85.163-1.148.49-.299.317-.448.756-.448 1.316s.15 1.003.448 1.33c.299.317.681.476 1.148.476zm9.3 2.114c-.813 0-1.545-.168-2.199-.504a3.855 3.855 0 01-1.54-1.4c-.364-.597-.546-1.274-.546-2.03 0-.747.182-1.419.546-2.016A3.777 3.777 0 0197.2 8.79c.654-.336 1.391-.504 2.212-.504.822 0 1.559.168 2.212.504a3.657 3.657 0 011.526 1.386c.364.588.546 1.26.546 2.016s-.182 1.433-.546 2.03a3.751 3.751 0 01-1.526 1.4c-.653.336-1.39.504-2.212.504zm0-2.114c.466 0 .849-.159 1.147-.476.299-.327.448-.775.448-1.344 0-.56-.149-.999-.448-1.316-.298-.317-.681-.476-1.148-.476-.466 0-.849.159-1.148.476-.298.317-.448.756-.448 1.316 0 .57.15 1.017.448 1.344.299.317.682.476 1.148.476zm14.368-.14v3.696h-2.464V16h-4.774v1.568h-2.478v-3.696h.28c.457-.01.775-.257.952-.742.177-.495.285-1.185.322-2.072l.098-2.646h7.014v5.46h1.05zm-5.768-2.618c-.028.681-.079 1.227-.154 1.638-.075.41-.215.737-.42.98h2.632v-3.346h-2.03l-.028.728zm6.911-2.842h2.646v2.814h2.73V8.412h2.66V16h-2.66v-2.66h-2.73V16h-2.646V8.412zm12.924-.126c1.26 0 2.222.29 2.884.868.663.57.994 1.447.994 2.632V16h-2.478v-.98c-.382.737-1.129 1.106-2.24 1.106-.588 0-1.096-.103-1.526-.308-.429-.205-.756-.48-.98-.826a2.285 2.285 0 01-.322-1.204c0-.719.276-1.274.826-1.666.551-.401 1.4-.602 2.548-.602h1.512c-.046-.803-.583-1.204-1.61-1.204-.364 0-.732.06-1.106.182-.373.112-.69.27-.952.476l-.896-1.806c.42-.28.929-.495 1.526-.644a7.173 7.173 0 011.82-.238zm-.098 6.16c.308 0 .579-.075.812-.224a1.24 1.24 0 00.504-.658v-.658h-1.148c-.774 0-1.162.257-1.162.77 0 .233.089.42.266.56.178.14.42.21.728.21zm12.717-6.034V16H138.1v-2.058h-1.204L135.552 16h-2.814l1.68-2.422c-.504-.224-.892-.527-1.162-.91-.262-.392-.392-.859-.392-1.4 0-.905.336-1.605 1.008-2.1.672-.504 1.596-.756 2.772-.756h3.822zm-3.766 2.1c-.747 0-1.12.285-1.12.854 0 .299.088.518.266.658.186.14.466.21.84.21h1.414v-1.722h-1.4zm17.468-2.1V16h-2.646v-5.474h-2.548V16h-2.646V8.412h7.84zm6.586-.126a3.65 3.65 0 011.876.49 3.403 3.403 0 011.344 1.372c.336.588.504 1.274.504 2.058 0 .784-.168 1.475-.504 2.072a3.523 3.523 0 01-1.344 1.372 3.737 3.737 0 01-1.876.476c-.887 0-1.591-.266-2.114-.798v3.388h-2.66V8.412h2.534v.756c.495-.588 1.241-.882 2.24-.882zm-.56 5.726c.467 0 .849-.159 1.148-.476.299-.327.448-.77.448-1.33s-.149-.999-.448-1.316c-.299-.327-.681-.49-1.148-.49-.467 0-.849.163-1.148.49-.299.317-.448.756-.448 1.316s.149 1.003.448 1.33c.299.317.681.476 1.148.476zm9.299 2.114c-.812 0-1.544-.168-2.198-.504a3.86 3.86 0 01-1.54-1.4c-.364-.597-.546-1.274-.546-2.03 0-.747.182-1.419.546-2.016a3.78 3.78 0 011.526-1.386c.654-.336 1.391-.504 2.212-.504.822 0 1.559.168 2.212.504a3.657 3.657 0 011.526 1.386c.364.588.546 1.26.546 2.016s-.182 1.433-.546 2.03a3.751 3.751 0 01-1.526 1.4c-.653.336-1.39.504-2.212.504zm0-2.114c.467 0 .85-.159 1.148-.476.299-.327.448-.775.448-1.344 0-.56-.149-.999-.448-1.316-.298-.317-.681-.476-1.148-.476-.466 0-.849.159-1.148.476-.298.317-.448.756-.448 1.316 0 .57.15 1.017.448 1.344.299.317.682.476 1.148.476zm11.888-3.486h-3.71V16h-2.646V8.412h6.356v2.114zm5.814-2.24a3.65 3.65 0 011.876.49 3.39 3.39 0 011.344 1.372c.336.588.504 1.274.504 2.058 0 .784-.168 1.475-.504 2.072a3.51 3.51 0 01-1.344 1.372 3.737 3.737 0 01-1.876.476c-.886 0-1.591-.266-2.114-.798v3.388h-2.66V8.412h2.534v.756c.495-.588 1.242-.882 2.24-.882zm-.56 5.726c.467 0 .85-.159 1.148-.476.299-.327.448-.77.448-1.33s-.149-.999-.448-1.316c-.298-.327-.681-.49-1.148-.49-.466 0-.849.163-1.148.49-.298.317-.448.756-.448 1.316s.15 1.003.448 1.33c.299.317.682.476 1.148.476zm8.492-5.726c1.26 0 2.221.29 2.884.868.662.57.994 1.447.994 2.632V16h-2.478v-.98c-.383.737-1.13 1.106-2.24 1.106-.588 0-1.097-.103-1.526-.308-.43-.205-.756-.48-.98-.826a2.276 2.276 0 01-.322-1.204c0-.719.275-1.274.826-1.666.55-.401 1.4-.602 2.548-.602h1.512c-.047-.803-.584-1.204-1.61-1.204-.364 0-.733.06-1.106.182-.374.112-.691.27-.952.476l-.896-1.806c.42-.28.928-.495 1.526-.644a7.161 7.161 0 011.82-.238zm-.098 6.16c.308 0 .578-.075.812-.224a1.25 1.25 0 00.504-.658v-.658h-1.148c-.775 0-1.162.257-1.162.77 0 .233.088.42.266.56.177.14.42.21.728.21zM207.969 16v-3.99l-1.946 3.318h-1.134l-1.89-3.374V16h-2.394V8.412h2.8l2.114 3.962 2.324-3.962h2.506l.014 7.588h-2.394zm11.553 0v-3.99l-1.946 3.318h-1.134l-1.89-3.374V16h-2.394V8.412h2.8l2.114 3.962 2.324-3.962h2.506l.014 7.588h-2.394zm7.282-7.714c1.26 0 2.222.29 2.884.868.663.57.994 1.447.994 2.632V16h-2.478v-.98c-.382.737-1.129 1.106-2.24 1.106-.588 0-1.096-.103-1.526-.308-.429-.205-.756-.48-.98-.826a2.285 2.285 0 01-.322-1.204c0-.719.276-1.274.826-1.666.551-.401 1.4-.602 2.548-.602h1.512c-.046-.803-.583-1.204-1.61-1.204-.364 0-.732.06-1.106.182-.373.112-.69.27-.952.476l-.896-1.806c.42-.28.929-.495 1.526-.644a7.173 7.173 0 011.82-.238zm-.098 6.16c.308 0 .579-.075.812-.224a1.24 1.24 0 00.504-.658v-.658h-1.148c-.774 0-1.162.257-1.162.77 0 .233.089.42.266.56.178.14.42.21.728.21zM70.064 35.096c-.84 0-1.6-.184-2.28-.552a4.175 4.175 0 01-1.584-1.536c-.384-.656-.576-1.392-.576-2.208 0-.816.192-1.548.576-2.196a4.04 4.04 0 011.596-1.536c.68-.376 1.44-.564 2.28-.564.656 0 1.256.112 1.8.336.544.216 1.008.54 1.392.972l-.78.756c-.632-.664-1.42-.996-2.364-.996-.624 0-1.188.14-1.692.42-.504.28-.9.668-1.188 1.164a3.244 3.244 0 00-.42 1.644c0 .608.14 1.16.42 1.656.288.488.684.872 1.188 1.152.504.28 1.068.42 1.692.42.936 0 1.724-.336 2.364-1.008l.78.756c-.384.432-.852.76-1.404.984a4.684 4.684 0 01-1.8.336zm6.851-6.516c.88 0 1.552.216 2.016.648.472.432.708 1.076.708 1.932V35h-1.092v-.84a1.853 1.853 0 01-.828.684c-.352.152-.772.228-1.26.228-.712 0-1.284-.172-1.716-.516-.424-.344-.636-.796-.636-1.356s.204-1.008.612-1.344c.408-.344 1.056-.516 1.944-.516h1.824v-.228c0-.496-.144-.876-.432-1.14-.288-.264-.712-.396-1.272-.396-.376 0-.744.064-1.104.192a2.76 2.76 0 00-.912.492l-.48-.864c.328-.264.72-.464 1.176-.6.456-.144.94-.216 1.452-.216zm-.264 5.604c.44 0 .82-.096 1.14-.288.32-.2.552-.48.696-.84v-.888h-1.776c-.976 0-1.464.328-1.464.984 0 .32.124.572.372.756.248.184.592.276 1.032.276zm12.395-5.544V35h-1.044v-4.644l-2.376 3.924h-.504l-2.352-3.936V35h-1.056v-6.36h1.188l2.496 4.296 2.568-4.296h1.08zm4.51-.06c.88 0 1.552.216 2.016.648.472.432.708 1.076.708 1.932V35h-1.092v-.84a1.853 1.853 0 01-.828.684c-.352.152-.772.228-1.26.228-.712 0-1.284-.172-1.716-.516-.424-.344-.636-.796-.636-1.356s.204-1.008.612-1.344c.408-.344 1.056-.516 1.944-.516h1.824v-.228c0-.496-.144-.876-.432-1.14-.288-.264-.712-.396-1.272-.396-.376 0-.744.064-1.104.192a2.76 2.76 0 00-.912.492l-.48-.864c.328-.264.72-.464 1.176-.6.456-.144.94-.216 1.452-.216zm-.264 5.604c.44 0 .82-.096 1.14-.288.32-.2.552-.48.696-.84v-.888h-1.776c-.976 0-1.464.328-1.464.984 0 .32.124.572.372.756.248.184.592.276 1.032.276zm8.434-5.604c.616 0 1.168.136 1.656.408.488.272.868.652 1.14 1.14.28.488.42 1.052.42 1.692 0 .64-.14 1.208-.42 1.704a2.894 2.894 0 01-1.14 1.14 3.343 3.343 0 01-1.656.408c-.456 0-.876-.088-1.26-.264a2.62 2.62 0 01-.96-.768v3.288h-1.152V28.64h1.104v1.008c.256-.352.58-.616.972-.792a3.012 3.012 0 011.296-.276zm-.096 5.484a2.15 2.15 0 001.092-.276 2.03 2.03 0 00.768-.792c.192-.344.288-.736.288-1.176 0-.44-.096-.828-.288-1.164a1.93 1.93 0 00-.768-.792 2.15 2.15 0 00-1.092-.276c-.4 0-.764.096-1.092.288-.32.184-.576.444-.768.78a2.385 2.385 0 00-.276 1.164c0 .44.092.832.276 1.176.184.336.44.6.768.792.328.184.692.276 1.092.276zm7.758 1.008c-.648 0-1.228-.14-1.74-.42-.504-.28-.9-.664-1.188-1.152a3.284 3.284 0 01-.432-1.68c0-.624.144-1.18.432-1.668.288-.496.684-.88 1.188-1.152.512-.28 1.092-.42 1.74-.42.576 0 1.088.116 1.536.348a2.47 2.47 0 011.056 1.008l-.876.564a1.957 1.957 0 00-.744-.684 2.122 2.122 0 00-.984-.228 2.31 2.31 0 00-1.128.276 2.008 2.008 0 00-.78.792 2.385 2.385 0 00-.276 1.164c0 .448.092.844.276 1.188.192.336.452.596.78.78a2.31 2.31 0 001.128.276c.36 0 .688-.076.984-.228.296-.152.544-.38.744-.684l.876.552c-.248.44-.6.78-1.056 1.02-.448.232-.96.348-1.536.348zm6.555-2.76h-1.32V35h-1.152v-6.36h1.152v2.688h1.344l2.064-2.688h1.236l-2.412 3.06 2.58 3.3h-1.356l-2.136-2.688zm6.851-3.732c.88 0 1.552.216 2.016.648.472.432.708 1.076.708 1.932V35h-1.092v-.84a1.853 1.853 0 01-.828.684c-.352.152-.772.228-1.26.228-.712 0-1.284-.172-1.716-.516-.424-.344-.636-.796-.636-1.356s.204-1.008.612-1.344c.408-.344 1.056-.516 1.944-.516h1.824v-.228c0-.496-.144-.876-.432-1.14-.288-.264-.712-.396-1.272-.396-.376 0-.744.064-1.104.192a2.76 2.76 0 00-.912.492l-.48-.864c.328-.264.72-.464 1.176-.6.456-.144.94-.216 1.452-.216zm-.264 5.604c.44 0 .82-.096 1.14-.288.32-.2.552-.48.696-.84v-.888h-1.776c-.976 0-1.464.328-1.464.984 0 .32.124.572.372.756.248.184.592.276 1.032.276zm10.163-5.544V35h-1.032v-2.016h-1.98L128.289 35h-1.236l1.548-2.172c-.48-.144-.848-.38-1.104-.708-.256-.336-.384-.752-.384-1.248 0-.728.248-1.28.744-1.656.496-.384 1.18-.576 2.052-.576h2.784zm-4.404 2.268c0 .424.132.74.396.948.272.2.676.3 1.212.3h1.764v-2.508h-1.716c-1.104 0-1.656.42-1.656 1.26zm12.598 4.164c-.632 0-1.2-.14-1.704-.42-.504-.28-.9-.664-1.188-1.152a3.357 3.357 0 01-.42-1.68c0-.624.14-1.18.42-1.668.288-.496.684-.88 1.188-1.152a3.449 3.449 0 011.704-.42c.632 0 1.196.14 1.692.42.504.272.896.656 1.176 1.152.288.488.432 1.044.432 1.668 0 .624-.144 1.184-.432 1.68-.28.488-.672.872-1.176 1.152-.496.28-1.06.42-1.692.42zm0-1.008a2.15 2.15 0 001.092-.276 2.03 2.03 0 00.768-.792c.184-.344.276-.736.276-1.176 0-.44-.092-.828-.276-1.164a1.93 1.93 0 00-.768-.792 2.15 2.15 0 00-1.092-.276c-.408 0-.776.092-1.104.276-.32.184-.576.448-.768.792a2.385 2.385 0 00-.276 1.164c0 .44.092.832.276 1.176.192.336.448.6.768.792.328.184.696.276 1.104.276zm8.203-5.208c.592 0 1.12.132 1.584.396.464.264.824.632 1.08 1.104.264.464.396.996.396 1.596 0 .616-.14 1.164-.42 1.644a2.82 2.82 0 01-1.164 1.104c-.496.264-1.064.396-1.704.396-1.08 0-1.916-.368-2.508-1.104-.584-.744-.876-1.788-.876-3.132 0-1.304.268-2.324.804-3.06.536-.744 1.356-1.236 2.46-1.476l2.904-.648.168 1.056-2.676.576c-.832.184-1.452.496-1.86.936-.408.44-.64 1.072-.696 1.896a2.799 2.799 0 011.056-.948 3.107 3.107 0 011.452-.336zm-.204 5.28c.408 0 .768-.092 1.08-.276a1.93 1.93 0 00.744-.756c.176-.328.264-.7.264-1.116 0-.632-.192-1.14-.576-1.524-.384-.384-.888-.576-1.512-.576s-1.132.192-1.524.576c-.384.384-.576.892-.576 1.524 0 .416.088.788.264 1.116.184.32.436.572.756.756.32.184.68.276 1.08.276zm10.323-5.496V35h-1.152v-5.352h-2.736l-.072 1.416c-.04.856-.116 1.572-.228 2.148-.112.568-.296 1.024-.552 1.368-.256.344-.612.516-1.068.516-.208 0-.444-.036-.708-.108l.072-.972c.104.024.2.036.288.036.32 0 .56-.14.72-.42.16-.28.264-.612.312-.996.048-.384.092-.932.132-1.644l.108-2.352h4.884zm4.495-.06c.88 0 1.552.216 2.016.648.472.432.708 1.076.708 1.932V35h-1.092v-.84a1.853 1.853 0 01-.828.684c-.352.152-.772.228-1.26.228-.712 0-1.284-.172-1.716-.516-.424-.344-.636-.796-.636-1.356s.204-1.008.612-1.344c.408-.344 1.056-.516 1.944-.516h1.824v-.228c0-.496-.144-.876-.432-1.14-.288-.264-.712-.396-1.272-.396-.376 0-.744.064-1.104.192a2.76 2.76 0 00-.912.492l-.48-.864c.328-.264.72-.464 1.176-.6.456-.144.94-.216 1.452-.216zm-.264 5.604c.44 0 .82-.096 1.14-.288.32-.2.552-.48.696-.84v-.888H163.5c-.976 0-1.464.328-1.464.984 0 .32.124.572.372.756.248.184.592.276 1.032.276zm7.835.888c-.648 0-1.228-.14-1.74-.42-.504-.28-.9-.664-1.188-1.152a3.284 3.284 0 01-.432-1.68c0-.624.144-1.18.432-1.668.288-.496.684-.88 1.188-1.152.512-.28 1.092-.42 1.74-.42.576 0 1.088.116 1.536.348a2.47 2.47 0 011.056 1.008l-.876.564a1.957 1.957 0 00-.744-.684 2.122 2.122 0 00-.984-.228 2.31 2.31 0 00-1.128.276 2.008 2.008 0 00-.78.792 2.385 2.385 0 00-.276 1.164c0 .448.092.844.276 1.188.192.336.452.596.78.78a2.31 2.31 0 001.128.276c.36 0 .688-.076.984-.228.296-.152.544-.38.744-.684l.876.552c-.248.44-.6.78-1.056 1.02-.448.232-.96.348-1.536.348zm8.741-5.424h-2.328V35h-1.152v-5.352h-2.328V28.64h5.808v1.008zm4.118 1.152c.808.008 1.424.192 1.848.552.424.36.636.868.636 1.524 0 .688-.232 1.22-.696 1.596-.456.368-1.112.548-1.968.54l-2.76-.012v-6.36h1.152v2.148l1.788.012zm-.276 3.336c.52.008.912-.096 1.176-.312.272-.216.408-.536.408-.96 0-.416-.132-.72-.396-.912-.256-.192-.652-.292-1.188-.3l-1.512-.024v2.496l1.512.012z" fill="#fff"/></svg>