<svg width="199" height="36" fill="none" xmlns="http://www.w3.org/2000/svg"><path fill-rule="evenodd" clip-rule="evenodd" d="M39.09 20.552c-.784-3.233-3.56-7.904-12.104-7.904-1.78 0-6.48.503-7.334.503.071-.287.925-2.73 1.068-3.09-.57-.287-2.065-.574-4.201-.646-4.984-.144-11.036 2.012-14.81 4.814C1.282 15.523.499 17.534 0 18.756c3.916-2.084 9.683-4.24 14.098-4.67 2.99-.288 4.13.287 4.486.503.356.143-2.564 1.15-2.492 2.299 0 1.437 5.98-.144 9.897 0 6.764.215 9.754 2.586 10.823 5.964 1.352 4.167-1.069 8.19-4.059 9.7 3.702-.935 7.69-6.323 6.337-12z" fill="#ED1B2E"/><path fill-rule="evenodd" clip-rule="evenodd" d="M16.521 9.414c2.136.072 3.631.36 4.201.647-.142.36-.997 2.802-1.068 3.09.854 0 5.554-.503 7.334-.503 8.544 0 11.32 4.67 12.104 7.903.214.934.285 1.797.285 2.659.498-2.371.498-5.245.213-6.826-.498-3.234-3.346-7.76-11.178-7.904-1.78 0-6.48.503-7.263.503.071-.287.926-2.73.997-3.09-.498-.287-1.78-.79-3.916-.862C13.175 4.96 7.122 7.043 3.349 9.845c-.428 1.293-1.14 3.162-1.638 4.383 3.774-2.802 9.826-4.958 14.81-4.814z" fill="#00AEEF"/><path fill-rule="evenodd" clip-rule="evenodd" d="M39.447 11.283c-.712-2.587-3.489-6.754-9.612-6.898-1.78 0-6.266.36-7.263.431.072-.215.784-2.37.926-2.73-.427-.575-1.709-1.078-3.845-1.15-5.055-.143-11.036 2.156-14.81 5.03-.427 1.293-1.495 4.024-1.495 3.88 3.773-2.802 9.826-4.886 14.88-4.814 2.137.072 3.419.575 3.917.862-.071.36-.926 2.803-.997 3.09.783 0 5.483-.503 7.263-.503 7.832.144 10.68 4.67 11.178 7.904.143.79.214 2.012.143 3.305.427-2.73.356-5.748-.285-8.407z" fill="#fff"/><path fill-rule="evenodd" clip-rule="evenodd" d="M23.499 2.085c.142-.359.213-.718.285-.862-.499-.431-1.852-1.15-3.845-1.221-4.985-.072-10.966 2.227-14.74 5.03-.07.287-.213.574-.355.933C8.617 3.163 14.67.792 19.654.935c2.065.073 3.346.576 3.845 1.15zm15.807 8.048c-.57-2.371-3.276-6.682-9.4-6.682-2.064 0-5.909.287-7.048.43-.143.504-.285.863-.285.935.997-.072 5.483-.431 7.263-.431 6.123.144 8.9 4.311 9.612 6.898.142.647.214 1.221.356 1.868-.142-1.222-.285-2.3-.498-3.018zM11.32 18.18c-1.78.073-3.631 1.079-4.984 2.66-1.068 1.365-1.71 2.945-1.71 4.598 0 .36.072.647.072 1.006l.071.287.285.144c.214.072.356.215.427.287l-.284.575-.784 1.725a8.914 8.914 0 00-.57 3.161c0 1.078.214 2.227.926 3.09l.143.287h4.414l.072-.43c0-.144.07-.288.07-.432 0-.36-.07-.862-.284-1.15-.214-.359-.427-.43-.57-.503-.07 0-.213-.143-.213-.359v-.072c.071-.287.498-.646 1.353-1.005l.07-.072c.428.718.855 1.437 1.069 1.868l.427.718c.356.575.854 1.078 1.424 1.365l.143.072h4.628v-.646c0-1.15-.285-1.797-.855-1.94l-.427-.072c-.498-.144-.498-.144-.57-.288v-.143c0-.216.072-.575.214-.863 0 0 .071-.431.142-.79a5.89 5.89 0 011.567-.216 9.518 9.518 0 00-.214 1.94c0 .647.072 1.15.072 1.437v.072c.213.503.996 1.222 1.78 1.437l.142.072h4.628v-.647c-.142-1.293-.498-1.94-1.14-1.94-.64 0-.996-.287-.996-.36 0-.071.285-.502 1.21-1.364.57 1.437 2.493 3.52 3.774 4.239l.071.072h4.842l-.142-.719c-.285-1.078-.784-1.796-1.567-1.94-.925-.144-1.21-.287-1.424-.646-.142-.144-.285-.791-.427-1.294a23.514 23.514 0 00-.427-1.58c-.071-.216-.143-.36-.214-.504l.071.144.285-.072c.855-.072 3.062-.574 3.845-1.436.57.07 1.353.07 1.78-.145.285-.143.783-.79.854-1.15v-.07l.214-.073c.641-.43 1.424-1.437 1.424-2.012v-.072c0-.287-.142-.503-.427-.574l-.142-.072a11.004 11.004 0 00-1.638-.575c-.214-1.006-1.567-1.509-2.706-1.94-.213-.431-.64-.79-1.139-1.006-.498-.216-1.068-.144-1.495.072-1.495-.719-4.7-1.796-6.48-2.012l-.427-.072-.142.431c-.071.072-.214.503-.57.575-1.21.144-2.492-.144-3.916-.431-1.638-.287-3.418-.718-5.625-.646z" fill="#2E4EA4"/><path fill-rule="evenodd" clip-rule="evenodd" d="M32.467 24.215c-.213 0-.925.503-1.14.503-.213-.215-.854-1.15 1.14-.934.285 0 .072-.287-.142-.43-.428-.216-1.21-.504-2.208-.791-.213-.862-1.21-1.222-1.495-.216-1.139-.646-3.702-1.652-5.482-1.94-.214.144-.285.863-1.495 1.078-1.496.288-4.486-.647-7.904-1.078-3.418-.43-6.123 1.294-6.48 4.455.784-.144 2.422-.216 3.49 1.222 3.275 4.167 2.634 5.676 3.204 5.964.64-1.438 1.637-4.671.64-6.611.356-.144.926.36 1.496.862.64.647 1.709 1.15 2.634 1.078.356-1.365 1.923-2.73 2.35-2.659-.854 1.438-1.282 2.3-1.709 3.952-.64 2.012-.427 4.311 0 4.383.142-.646.427-1.868 1.424-3.52 1.567-2.515 4.557-4.67 6.764-4.168-.64.144-1.139.79-1.281 1.078.854.215 1.281.575 1.637 1.006.784-.719 2.279-.575 3.276-1.006 0-.287.07-.647.57-.719.64-.071 1.494.216 2.064-.071.214-.144.712-.719.712-1.078-.214-.144-1.14-.36-2.065-.36z" fill="#fff"/><path d="M64.892 5.6V14h-2.376v-3.276h-3.24V14H56.9V5.6h2.376v3.156h3.24V5.6h2.376zm4.325 1.788c1.08 0 1.904.248 2.472.744.568.488.852 1.24.852 2.256V14h-2.124v-.84c-.328.632-.968.948-1.92.948-.504 0-.94-.088-1.308-.264-.368-.176-.648-.412-.84-.708a1.954 1.954 0 01-.276-1.032c0-.616.236-1.092.708-1.428.472-.344 1.2-.516 2.184-.516h1.296c-.04-.688-.5-1.032-1.38-1.032-.312 0-.628.052-.948.156a2.44 2.44 0 00-.816.408l-.768-1.548a4.16 4.16 0 011.308-.552 6.143 6.143 0 011.56-.204zm-.084 5.28c.264 0 .496-.064.696-.192.2-.128.344-.316.432-.564v-.564h-.984c-.664 0-.996.22-.996.66 0 .2.076.36.228.48.152.12.36.18.624.18zm8.871-5.28c.593 0 1.128.14 1.608.42.489.272.873.664 1.153 1.176.287.504.431 1.092.431 1.764 0 .672-.144 1.264-.431 1.776-.28.504-.665.896-1.153 1.176a3.204 3.204 0 01-1.608.408c-.76 0-1.364-.228-1.812-.684v2.904h-2.28V7.496h2.172v.648c.424-.504 1.064-.756 1.92-.756zm-.48 4.908c.4 0 .728-.136.984-.408.257-.28.385-.66.385-1.14 0-.48-.129-.856-.385-1.128a1.274 1.274 0 00-.983-.42c-.4 0-.729.14-.985.42-.256.272-.384.648-.384 1.128 0 .48.128.86.384 1.14.256.272.584.408.984.408zm7.971 1.812c-.696 0-1.324-.144-1.884-.432-.56-.288-1-.688-1.32-1.2a3.277 3.277 0 01-.468-1.74c0-.64.156-1.216.468-1.728.32-.512.756-.908 1.308-1.188.56-.288 1.192-.432 1.896-.432s1.336.144 1.896.432c.56.28.996.676 1.308 1.188.312.504.468 1.08.468 1.728 0 .648-.156 1.228-.468 1.74a3.219 3.219 0 01-1.308 1.2c-.56.288-1.192.432-1.896.432zm0-1.812c.4 0 .728-.136.984-.408.256-.28.384-.664.384-1.152 0-.48-.128-.856-.384-1.128-.256-.272-.584-.408-.984-.408s-.728.136-.984.408c-.256.272-.384.648-.384 1.128 0 .488.128.872.384 1.152.256.272.584.408.984.408zm12.317-.12v3.168H95.7V14h-4.092v1.344h-2.124v-3.168h.24c.392-.008.664-.22.816-.636.152-.424.244-1.016.276-1.776l.084-2.268h6.012v4.68h.9zm-4.944-2.244a10.626 10.626 0 01-.132 1.404c-.064.352-.184.632-.36.84h2.256V9.308h-1.74l-.024.624zm5.923-2.436h2.268v2.412h2.34V7.496h2.28V14h-2.28v-2.28h-2.34V14h-2.268V7.496zm11.078-.108c1.08 0 1.904.248 2.472.744.568.488.852 1.24.852 2.256V14h-2.124v-.84c-.328.632-.968.948-1.92.948-.504 0-.94-.088-1.308-.264-.368-.176-.648-.412-.84-.708a1.954 1.954 0 01-.276-1.032c0-.616.236-1.092.708-1.428.472-.344 1.2-.516 2.184-.516h1.296c-.04-.688-.5-1.032-1.38-1.032-.312 0-.628.052-.948.156a2.44 2.44 0 00-.816.408l-.768-1.548a4.16 4.16 0 011.308-.552 6.143 6.143 0 011.56-.204zm-.084 5.28c.264 0 .496-.064.696-.192.2-.128.344-.316.432-.564v-.564h-.984c-.664 0-.996.22-.996.66 0 .2.076.36.228.48.152.12.36.18.624.18zm10.9-5.172V14h-2.028v-1.764h-1.032L116.473 14h-2.412l1.44-2.076c-.432-.192-.764-.452-.996-.78-.224-.336-.336-.736-.336-1.2 0-.776.288-1.376.864-1.8.576-.432 1.368-.648 2.376-.648h3.276zm-3.228 1.8c-.64 0-.96.244-.96.732 0 .256.076.444.228.564.16.12.4.18.72.18h1.212V9.296h-1.2zm14.972-1.8V14h-2.268V9.308h-2.184V14h-2.268V7.496h6.72zm5.646-.108c.592 0 1.128.14 1.608.42.488.272.872.664 1.152 1.176.288.504.432 1.092.432 1.764 0 .672-.144 1.264-.432 1.776-.28.504-.664.896-1.152 1.176a3.204 3.204 0 01-1.608.408c-.76 0-1.364-.228-1.812-.684v2.904h-2.28V7.496h2.172v.648c.424-.504 1.064-.756 1.92-.756zm-.48 4.908c.4 0 .728-.136.984-.408.256-.28.384-.66.384-1.14 0-.48-.128-.856-.384-1.128a1.274 1.274 0 00-.984-.42c-.4 0-.728.14-.984.42-.256.272-.384.648-.384 1.128 0 .48.128.86.384 1.14.256.272.584.408.984.408zm7.971 1.812c-.696 0-1.324-.144-1.884-.432-.56-.288-1-.688-1.32-1.2a3.277 3.277 0 01-.468-1.74c0-.64.156-1.216.468-1.728.32-.512.756-.908 1.308-1.188.56-.288 1.192-.432 1.896-.432s1.336.144 1.896.432c.56.28.996.676 1.308 1.188.312.504.468 1.08.468 1.728 0 .648-.156 1.228-.468 1.74a3.219 3.219 0 01-1.308 1.2c-.56.288-1.192.432-1.896.432zm0-1.812c.4 0 .728-.136.984-.408.256-.28.384-.664.384-1.152 0-.48-.128-.856-.384-1.128-.256-.272-.584-.408-.984-.408s-.728.136-.984.408c-.256.272-.384.648-.384 1.128 0 .488.128.872.384 1.152.256.272.584.408.984.408zm10.189-2.988h-3.18V14h-2.268V7.496h5.448v1.812zm4.984-1.92c.592 0 1.128.14 1.608.42.488.272.872.664 1.152 1.176.288.504.432 1.092.432 1.764 0 .672-.144 1.264-.432 1.776-.28.504-.664.896-1.152 1.176a3.204 3.204 0 01-1.608.408c-.76 0-1.364-.228-1.812-.684v2.904h-2.28V7.496h2.172v.648c.424-.504 1.064-.756 1.92-.756zm-.48 4.908c.4 0 .728-.136.984-.408.256-.28.384-.66.384-1.14 0-.48-.128-.856-.384-1.128a1.274 1.274 0 00-.984-.42c-.4 0-.728.14-.984.42-.256.272-.384.648-.384 1.128 0 .48.128.86.384 1.14.256.272.584.408.984.408zm7.278-4.908c1.08 0 1.904.248 2.472.744.568.488.852 1.24.852 2.256V14h-2.124v-.84c-.328.632-.968.948-1.92.948-.504 0-.94-.088-1.308-.264-.368-.176-.648-.412-.84-.708a1.954 1.954 0 01-.276-1.032c0-.616.236-1.092.708-1.428.472-.344 1.2-.516 2.184-.516h1.296c-.04-.688-.5-1.032-1.38-1.032-.312 0-.628.052-.948.156a2.44 2.44 0 00-.816.408l-.768-1.548a4.16 4.16 0 011.308-.552 6.143 6.143 0 011.56-.204zm-.084 5.28c.264 0 .496-.064.696-.192.2-.128.344-.316.432-.564v-.564h-.984c-.664 0-.996.22-.996.66 0 .2.076.36.228.48.152.12.36.18.624.18zM178.545 14v-3.42l-1.668 2.844h-.972l-1.62-2.892V14h-2.052V7.496h2.4l1.812 3.396 1.992-3.396h2.148l.012 6.504h-2.052zm9.902 0v-3.42l-1.668 2.844h-.972l-1.62-2.892V14h-2.052V7.496h2.4l1.812 3.396 1.992-3.396h2.148l.012 6.504h-2.052zm6.243-6.612c1.08 0 1.904.248 2.472.744.568.488.852 1.24.852 2.256V14h-2.124v-.84c-.328.632-.968.948-1.92.948-.504 0-.94-.088-1.308-.264-.368-.176-.648-.412-.84-.708a1.954 1.954 0 01-.276-1.032c0-.616.236-1.092.708-1.428.472-.344 1.2-.516 2.184-.516h1.296c-.04-.688-.5-1.032-1.38-1.032-.312 0-.628.052-.948.156a2.44 2.44 0 00-.816.408l-.768-1.548a4.16 4.16 0 011.308-.552 6.143 6.143 0 011.56-.204zm-.084 5.28c.264 0 .496-.064.696-.192.2-.128.344-.316.432-.564v-.564h-.984c-.664 0-.996.22-.996.66 0 .2.076.36.228.48.152.12.36.18.624.18zM60.642 32.088c-.77 0-1.467-.169-2.09-.506a3.827 3.827 0 01-1.452-1.408 3.932 3.932 0 01-.528-2.024c0-.748.176-1.419.528-2.013.352-.601.84-1.07 1.463-1.408.623-.345 1.32-.517 2.09-.517.601 0 1.151.103 1.65.308.499.198.924.495 1.276.891l-.715.693c-.58-.609-1.302-.913-2.167-.913-.572 0-1.089.128-1.551.385a2.82 2.82 0 00-1.089 1.067 2.97 2.97 0 00-.385 1.507c0 .557.128 1.063.385 1.518.264.447.627.8 1.089 1.056.462.257.979.385 1.551.385.858 0 1.58-.308 2.167-.924l.715.693a3.412 3.412 0 01-1.287.902 4.294 4.294 0 01-1.65.308zm6.28-5.973c.807 0 1.423.198 1.848.594.433.396.65.986.65 1.771V32h-1.002v-.77a1.7 1.7 0 01-.759.627c-.322.14-.707.209-1.155.209-.652 0-1.177-.158-1.573-.473a1.525 1.525 0 01-.583-1.243c0-.513.187-.924.561-1.232.374-.315.968-.473 1.782-.473h1.672v-.209c0-.455-.132-.803-.396-1.045-.264-.242-.652-.363-1.166-.363a3 3 0 00-1.012.176c-.33.11-.608.26-.836.451l-.44-.792c.301-.242.66-.425 1.078-.55a4.395 4.395 0 011.331-.198zm-.242 5.137c.404 0 .752-.088 1.045-.264.294-.183.506-.44.638-.77v-.814h-1.628c-.894 0-1.342.3-1.342.902 0 .293.114.524.341.693.228.169.543.253.946.253zm11.362-5.082V32h-.957v-4.257l-2.178 3.597h-.462l-2.156-3.608V32h-.968v-5.83h1.089l2.288 3.938 2.354-3.938h.99zm4.134-.055c.807 0 1.423.198 1.848.594.433.396.65.986.65 1.771V32h-1.002v-.77a1.7 1.7 0 01-.759.627c-.322.14-.707.209-1.155.209-.652 0-1.177-.158-1.573-.473a1.525 1.525 0 01-.583-1.243c0-.513.187-.924.561-1.232.374-.315.968-.473 1.782-.473h1.672v-.209c0-.455-.132-.803-.396-1.045-.264-.242-.652-.363-1.166-.363-.344 0-.682.059-1.012.176-.33.11-.608.26-.836.451l-.44-.792c.3-.242.66-.425 1.078-.55a4.395 4.395 0 011.331-.198zm-.242 5.137c.404 0 .752-.088 1.045-.264a1.57 1.57 0 00.638-.77v-.814H81.99c-.894 0-1.342.3-1.342.902 0 .293.114.524.341.693.228.169.543.253.946.253zm7.732-5.137c.564 0 1.07.125 1.518.374.447.25.795.598 1.045 1.045.256.447.385.964.385 1.551s-.129 1.107-.385 1.562c-.25.447-.598.796-1.045 1.045a3.06 3.06 0 01-1.518.374 2.74 2.74 0 01-1.155-.242 2.402 2.402 0 01-.88-.704v3.014h-1.056V26.17h1.012v.924c.234-.323.531-.565.89-.726a2.76 2.76 0 011.189-.253zm-.088 5.027c.374 0 .707-.084 1-.253.301-.176.536-.418.705-.726.176-.315.264-.675.264-1.078s-.088-.759-.264-1.067a1.77 1.77 0 00-.704-.726 1.972 1.972 0 00-1.001-.253c-.367 0-.7.088-1.001.264a1.884 1.884 0 00-.704.715 2.186 2.186 0 00-.253 1.067c0 .403.084.763.253 1.078.168.308.403.55.704.726.3.169.634.253 1 .253zm7.111.924a3.269 3.269 0 01-1.595-.385 2.844 2.844 0 01-1.089-1.056 3.01 3.01 0 01-.396-1.54c0-.572.132-1.082.396-1.529a2.742 2.742 0 011.089-1.056 3.269 3.269 0 011.595-.385c.528 0 .997.106 1.408.319.418.213.74.52.968.924l-.803.517a1.793 1.793 0 00-.682-.627 1.946 1.946 0 00-.902-.209c-.381 0-.726.084-1.034.253-.3.169-.539.41-.715.726a2.186 2.186 0 00-.253 1.067c0 .41.084.774.253 1.089.176.308.414.546.715.715.308.169.653.253 1.034.253.33 0 .63-.07.902-.209.271-.14.499-.348.682-.627l.803.506c-.227.403-.55.715-.968.935-.41.213-.88.319-1.408.319zm6.009-2.53h-1.21V32h-1.056v-5.83h1.056v2.464h1.232l1.892-2.464h1.133l-2.211 2.805L105.899 32h-1.243l-1.958-2.464zm6.28-3.421c.807 0 1.423.198 1.848.594.433.396.649.986.649 1.771V32h-1.001v-.77a1.7 1.7 0 01-.759.627c-.323.14-.708.209-1.155.209-.653 0-1.177-.158-1.573-.473-.389-.315-.583-.73-.583-1.243 0-.513.187-.924.561-1.232.374-.315.968-.473 1.782-.473h1.672v-.209c0-.455-.132-.803-.396-1.045-.264-.242-.653-.363-1.166-.363a3 3 0 00-1.012.176c-.33.11-.609.26-.836.451l-.44-.792c.301-.242.66-.425 1.078-.55a4.396 4.396 0 011.331-.198zm-.242 5.137c.403 0 .752-.088 1.045-.264.293-.183.506-.44.638-.77v-.814h-1.628c-.895 0-1.342.3-1.342.902 0 .293.114.524.341.693.227.169.543.253.946.253zm9.316-5.082V32h-.946v-1.848h-1.815L114.015 32h-1.133l1.419-1.991c-.44-.132-.778-.348-1.012-.649-.235-.308-.352-.69-.352-1.144 0-.667.227-1.173.682-1.518.454-.352 1.081-.528 1.881-.528h2.552zm-4.037 2.079c0 .389.121.678.363.869.249.183.619.275 1.111.275h1.617v-2.299h-1.573c-1.012 0-1.518.385-1.518 1.155zm11.548 3.817c-.579 0-1.1-.128-1.562-.385a2.844 2.844 0 01-1.089-1.056 3.074 3.074 0 01-.385-1.54c0-.572.128-1.082.385-1.529a2.742 2.742 0 011.089-1.056 3.162 3.162 0 011.562-.385c.579 0 1.096.128 1.551.385.462.25.821.601 1.078 1.056.264.447.396.957.396 1.529a3.01 3.01 0 01-.396 1.54c-.257.447-.616.8-1.078 1.056a3.101 3.101 0 01-1.551.385zm0-.924a1.97 1.97 0 001.001-.253c.301-.176.535-.418.704-.726.169-.315.253-.675.253-1.078s-.084-.759-.253-1.067a1.769 1.769 0 00-.704-.726 1.97 1.97 0 00-1.001-.253 2.03 2.03 0 00-1.012.253c-.293.169-.528.41-.704.726a2.182 2.182 0 00-.253 1.067c0 .403.084.763.253 1.078.176.308.411.55.704.726a2.03 2.03 0 001.012.253zm7.52-4.774c.543 0 1.027.121 1.452.363.425.242.755.58.99 1.012.242.425.363.913.363 1.463 0 .565-.128 1.067-.385 1.507-.249.433-.605.77-1.067 1.012-.455.242-.975.363-1.562.363-.99 0-1.756-.337-2.299-1.012-.535-.682-.803-1.639-.803-2.871 0-1.195.246-2.13.737-2.805.491-.682 1.243-1.133 2.255-1.353l2.662-.594.154.968-2.453.528c-.763.169-1.331.455-1.705.858-.374.403-.587.983-.638 1.738a2.56 2.56 0 01.968-.869 2.85 2.85 0 011.331-.308zm-.187 4.84c.374 0 .704-.084.99-.253.293-.169.521-.4.682-.693.161-.3.242-.642.242-1.023 0-.58-.176-1.045-.528-1.397-.352-.352-.814-.528-1.386-.528s-1.038.176-1.397.528c-.352.352-.528.818-.528 1.397 0 .381.081.722.242 1.023.169.293.4.524.693.693.293.169.623.253.99.253zm9.462-5.038V32h-1.056v-4.906h-2.508l-.066 1.298c-.037.785-.106 1.441-.209 1.969-.103.52-.271.939-.506 1.254-.235.315-.561.473-.979.473-.191 0-.407-.033-.649-.099l.066-.891c.095.022.183.033.264.033a.714.714 0 00.66-.385c.147-.257.242-.561.286-.913.044-.352.084-.854.121-1.507l.099-2.156h4.477zm4.121-.055c.807 0 1.423.198 1.848.594.433.396.649.986.649 1.771V32h-1.001v-.77a1.7 1.7 0 01-.759.627c-.323.14-.708.209-1.155.209-.653 0-1.177-.158-1.573-.473-.389-.315-.583-.73-.583-1.243 0-.513.187-.924.561-1.232.374-.315.968-.473 1.782-.473h1.672v-.209c0-.455-.132-.803-.396-1.045-.264-.242-.653-.363-1.166-.363a3 3 0 00-1.012.176c-.33.11-.609.26-.836.451l-.44-.792c.301-.242.66-.425 1.078-.55a4.396 4.396 0 011.331-.198zm-.242 5.137c.403 0 .752-.088 1.045-.264.293-.183.506-.44.638-.77v-.814h-1.628c-.895 0-1.342.3-1.342.902 0 .293.114.524.341.693.227.169.543.253.946.253zm7.181.814a3.27 3.27 0 01-1.595-.385 2.844 2.844 0 01-1.089-1.056 3.01 3.01 0 01-.396-1.54c0-.572.132-1.082.396-1.529a2.742 2.742 0 011.089-1.056 3.27 3.27 0 011.595-.385c.528 0 .998.106 1.408.319.418.213.741.52.968.924l-.803.517a1.786 1.786 0 00-.682-.627 1.945 1.945 0 00-.902-.209c-.381 0-.726.084-1.034.253-.3.169-.539.41-.715.726a2.193 2.193 0 00-.253 1.067c0 .41.085.774.253 1.089.176.308.415.546.715.715.308.169.653.253 1.034.253.33 0 .631-.07.902-.209a1.79 1.79 0 00.682-.627l.803.506c-.227.403-.55.715-.968.935-.41.213-.88.319-1.408.319zm8.013-4.972h-2.134V32h-1.056v-4.906h-2.134v-.924h5.324v.924zm3.775 1.056c.741.007 1.306.176 1.694.506.389.33.583.796.583 1.397 0 .63-.212 1.118-.638 1.463-.418.337-1.019.502-1.804.495l-2.53-.011v-5.83h1.056v1.969l1.639.011zm-.253 3.058c.477.007.836-.088 1.078-.286.25-.198.374-.491.374-.88 0-.381-.121-.66-.363-.836-.234-.176-.597-.268-1.089-.275l-1.386-.022v2.288l1.386.011z" fill="#1254D3"/></svg>