<svg width="232" height="40" fill="none" xmlns="http://www.w3.org/2000/svg"><path fill-rule="evenodd" clip-rule="evenodd" d="M43.976 22.835c-.881-3.592-4.005-8.782-13.617-8.782-2.003 0-7.29.56-8.25.56.08-.32 1.04-3.035 1.2-3.434-.64-.32-2.322-.639-4.725-.718-5.607-.16-12.416 2.235-16.661 5.349C1.442 17.247.56 19.482 0 20.84c4.406-2.316 10.894-4.71 15.86-5.19 3.364-.32 4.646.32 5.047.56.4.159-2.884 1.276-2.804 2.554 0 1.596 6.729-.16 11.134 0 7.61.24 10.974 2.874 12.176 6.626 1.522 4.631-1.202 9.102-4.566 10.778 4.165-1.038 8.651-7.026 7.13-13.333z" fill="#ED1B2E"/><path fill-rule="evenodd" clip-rule="evenodd" d="M18.583 10.46c2.403.08 4.086.4 4.726.718-.16.4-1.121 3.114-1.201 3.433.961 0 6.248-.558 8.25-.558 9.613 0 12.736 5.189 13.618 8.782.24 1.037.32 1.995.32 2.954.56-2.635.56-5.829.24-7.585-.56-3.593-3.764-8.622-12.576-8.782-2.002 0-7.289.559-8.17.559.08-.32 1.041-3.034 1.121-3.433-.56-.32-2.002-.878-4.405-.958-5.688-.08-12.496 2.235-16.742 5.349-.48 1.437-1.281 3.513-1.842 4.87 4.245-3.114 11.054-5.509 16.661-5.349z" fill="#00AEEF"/><path fill-rule="evenodd" clip-rule="evenodd" d="M44.378 12.536c-.801-2.874-3.925-7.504-10.814-7.664-2.003 0-7.049.399-8.17.479.08-.24.88-2.635 1.04-3.034-.48-.639-1.922-1.198-4.325-1.278C16.422.88 9.693 3.435 5.448 6.63c-.48 1.436-1.682 4.47-1.682 4.31C8.01 7.826 14.82 5.51 20.507 5.59c2.403.08 3.845.64 4.406.959-.08.399-1.042 3.113-1.122 3.432.881 0 6.168-.559 8.17-.559 8.812.16 12.016 5.19 12.577 8.783.16.878.24 2.235.16 3.672.48-3.034.4-6.387-.32-9.341z" fill="#fff"/><path fill-rule="evenodd" clip-rule="evenodd" d="M26.432 2.317c.16-.399.24-.798.32-.958C26.193.88 24.67.082 22.428.002 16.82-.078 10.09 2.477 5.846 5.59c-.08.319-.24.638-.4 1.037C9.69 3.515 16.498.88 22.105 1.04c2.323.08 3.765.638 4.326 1.277zm17.783 8.942c-.64-2.635-3.685-7.425-10.574-7.425-2.323 0-6.648.32-7.93.48-.16.558-.32.957-.32 1.037 1.121-.08 6.168-.479 8.17-.479 6.89.16 10.013 4.79 10.814 7.664.16.719.24 1.358.4 2.076-.16-1.357-.32-2.555-.56-3.353zM7.132 23.154c1.522-1.756 3.604-2.874 5.607-2.954 2.066-.066 3.8.254 5.385.547.32.06.634.118.943.171l.308.062c1.48.297 2.824.566 4.098.417.305-.06.47-.353.568-.524a.654.654 0 01.072-.115l.16-.479.481.08c2.003.24 5.608 1.437 7.29 2.236.48-.24 1.121-.32 1.682-.08.56.24 1.041.639 1.281 1.118l.037.013c1.274.476 2.77 1.035 3.007 2.142.641.16 1.282.4 1.843.639l.16.08c.32.08.48.319.48.638v.08c0 .639-.88 1.757-1.602 2.236l-.24.08v.08c-.08.399-.64 1.117-.961 1.277-.48.24-1.362.24-2.003.16-.88.958-3.364 1.516-4.325 1.596l-.32.08-.05-.1c.07.14.14.29.21.499.16.479.32 1.118.48 1.756.036.124.071.256.107.388.125.463.25.925.374 1.05.24.399.56.558 1.602.718.881.16 1.442.958 1.762 2.156l.16.798h-5.447l-.08-.08c-1.442-.798-3.604-3.113-4.245-4.71-1.041.958-1.362 1.437-1.362 1.517 0 .08.4.4 1.122.4.72 0 1.121.718 1.281 2.155v.718H21.79l-.16-.08c-.878-.238-1.756-1.031-2-1.59l-.002-.014v-.072c0-.128-.013-.294-.028-.493a13.791 13.791 0 01-.052-1.104c0-.638.08-1.437.24-2.155-.56 0-1.202.08-1.762.24-.08.398-.16.878-.16.878a2.4 2.4 0 00-.24.958v.16c.08.159.08.159.64.319l.48.08c.457.113.75.51.882 1.19v.007l.003.006c.051.273.077.59.077.952V40H14.5l-.16-.08c-.64-.32-1.201-.878-1.602-1.517l-.48-.798c-.24-.48-.722-1.277-1.202-2.076l-.08.08c-.962.399-1.442.798-1.522 1.117v.08c0 .24.16.4.24.4l.054.025c.157.075.372.177.587.533.24.32.32.878.32 1.278 0 .08-.02.16-.04.24-.02.08-.04.159-.04.239l-.08.479H5.53l-.16-.32c-.802-.958-1.042-2.235-1.042-3.433 0-1.277.24-2.474.64-3.512l.882-1.917.32-.638c-.08-.08-.24-.24-.48-.32l-.32-.16-.08-.319c0-.2-.02-.379-.04-.558-.02-.18-.04-.36-.04-.56 0-1.836.72-3.592 1.922-5.109zm28.755 4.032c.26-.14.52-.28.641-.28 1.041 0 2.083.24 2.323.4 0 .399-.56 1.037-.8 1.197-.397.197-.915.151-1.423.105-.314-.028-.625-.056-.9-.025-.562.08-.642.48-.642.798-.45.192-.99.282-1.533.372-.81.133-1.624.268-2.151.746-.4-.479-.882-.878-1.843-1.118.16-.319.721-1.038 1.442-1.197-2.483-.56-5.848 1.836-7.61 4.63-1.121 1.836-1.442 3.194-1.602 3.912-.48-.08-.72-2.634 0-4.87.48-1.836.961-2.794 1.923-4.39-.481-.08-2.243 1.436-2.644 2.953-1.041.08-2.243-.479-2.963-1.197-.641-.56-1.282-1.118-1.683-.958 1.122 2.155 0 5.748-.72 7.345-.207-.103-.272-.348-.39-.787-.245-.922-.719-2.703-3.215-5.84-1.202-1.597-3.044-1.517-3.925-1.357.4-3.513 3.444-5.429 7.29-4.95 1.48.184 2.889.452 4.158.692 2.027.385 3.698.702 4.733.505 1.015-.178 1.317-.667 1.505-.97.065-.104.115-.186.177-.227 2.002.32 4.886 1.437 6.168 2.156.32-1.118 1.441-.719 1.682.24 1.121.319 2.002.638 2.483.877.24.16.48.48.16.48-2.243-.24-1.522.798-1.282 1.037.12 0 .38-.14.641-.28z" fill="#2E4EA4"/><path d="M72.602 6.2h2.772V16h-2.772V6.2zm-3.78 9.8H66.05V6.2h2.772V16zm3.976-3.822h-4.172V9.882h4.172v2.296zM81.82 16v-1.414l-.182-.35v-2.604c0-.42-.131-.742-.392-.966-.252-.233-.658-.35-1.218-.35-.364 0-.733.06-1.106.182-.374.112-.691.27-.952.476l-.896-1.806c.429-.28.942-.495 1.54-.644a7.115 7.115 0 011.806-.238c1.232 0 2.184.285 2.856.854.681.56 1.022 1.442 1.022 2.646V16H81.82zm-2.24.126c-.607 0-1.12-.103-1.54-.308a2.307 2.307 0 01-.966-.84 2.253 2.253 0 01-.322-1.19c0-.467.116-.868.35-1.204.242-.345.611-.607 1.106-.784.494-.187 1.134-.28 1.918-.28h1.792v1.386H80.49c-.43 0-.733.07-.91.21a.692.692 0 00-.252.56c0 .233.088.42.266.56.177.14.42.21.728.21.289 0 .55-.07.784-.21.242-.15.42-.373.532-.672l.364.98c-.14.523-.416.92-.826 1.19-.402.261-.934.392-1.596.392zm11.092 0c-.644 0-1.195-.14-1.652-.42-.457-.29-.807-.719-1.05-1.288-.233-.579-.35-1.316-.35-2.212 0-.905.112-1.643.336-2.212.224-.579.56-1.008 1.008-1.288.457-.28 1.027-.42 1.708-.42.69 0 1.316.163 1.876.49.57.317 1.017.77 1.344 1.358.336.579.504 1.27.504 2.072 0 .803-.168 1.498-.504 2.086a3.421 3.421 0 01-1.344 1.358 3.738 3.738 0 01-1.876.476zm-4.774 2.59V8.412h2.534V9.7l-.014 2.506.14 2.52v3.99h-2.66zm4.214-4.704c.299 0 .565-.07.798-.21a1.47 1.47 0 00.574-.616c.15-.27.224-.597.224-.98s-.075-.71-.224-.98a1.47 1.47 0 00-.574-.616c-.233-.14-.5-.21-.798-.21-.299 0-.57.07-.812.21-.233.14-.425.345-.574.616-.14.27-.21.597-.21.98s.07.71.21.98c.15.27.34.476.574.616.243.14.513.21.812.21zm9.3 2.114c-.831 0-1.569-.168-2.213-.504a3.913 3.913 0 01-1.526-1.386c-.364-.597-.546-1.279-.546-2.044 0-.765.182-1.442.546-2.03A3.81 3.81 0 0197.2 8.79c.644-.336 1.382-.504 2.212-.504.831 0 1.568.168 2.212.504a3.688 3.688 0 011.526 1.372c.364.588.546 1.265.546 2.03 0 .765-.182 1.447-.546 2.044a3.784 3.784 0 01-1.526 1.386c-.644.336-1.381.504-2.212.504zm0-2.114c.307 0 .578-.07.811-.21.243-.14.434-.345.574-.616.14-.28.21-.611.21-.994s-.07-.705-.21-.966a1.467 1.467 0 00-.574-.616 1.546 1.546 0 00-.812-.21c-.298 0-.569.07-.812.21-.233.14-.424.345-.574.616-.14.261-.21.583-.21.966s.07.714.21.994c.15.27.341.476.574.616.243.14.514.21.812.21zm10.658.826v-4.312h-2.03l-.028.728c-.019.364-.042.71-.07 1.036a4.02 4.02 0 01-.14.868 2.051 2.051 0 01-.322.672c-.14.177-.327.308-.56.392l-2.604-.35c.252 0 .457-.07.616-.21.168-.15.299-.355.392-.616.093-.261.159-.56.196-.896.047-.345.079-.71.098-1.092l.098-2.646h7.014v6.426h-2.66zm-6.006 2.73v-3.696h9.716v3.696h-2.464V16h-4.774v1.568h-2.478zM114.923 16V8.412h2.646v2.814h2.73V8.412h2.66V16h-2.66v-2.66h-2.73V16h-2.646zm14.324 0v-1.414l-.182-.35v-2.604c0-.42-.13-.742-.392-.966-.252-.233-.658-.35-1.218-.35-.364 0-.732.06-1.106.182-.373.112-.69.27-.952.476l-.896-1.806c.43-.28.943-.495 1.54-.644a7.118 7.118 0 011.806-.238c1.232 0 2.184.285 2.856.854.682.56 1.022 1.442 1.022 2.646V16h-2.478zm-2.24.126c-.606 0-1.12-.103-1.54-.308a2.307 2.307 0 01-.966-.84 2.26 2.26 0 01-.322-1.19c0-.467.117-.868.35-1.204.243-.345.612-.607 1.106-.784.495-.187 1.134-.28 1.918-.28h1.792v1.386h-1.428c-.429 0-.732.07-.91.21a.692.692 0 00-.252.56c0 .233.089.42.266.56.178.14.42.21.728.21.29 0 .551-.07.784-.21.243-.15.42-.373.532-.672l.364.98c-.14.523-.415.92-.826 1.19-.401.261-.933.392-1.596.392zM138.1 16v-2.464l.35.406h-1.932c-1.13 0-2.021-.229-2.674-.686-.654-.467-.98-1.13-.98-1.988 0-.915.34-1.62 1.022-2.114.681-.495 1.6-.742 2.758-.742h3.822V16H138.1zm-5.362 0l2.002-2.884h2.688L135.552 16h-2.814zm5.362-3.262V9.854l.35.658h-1.75c-.355 0-.63.07-.826.21-.196.13-.294.345-.294.644 0 .579.368.868 1.106.868h1.764l-.35.504zM146.328 16V8.412h7.84V16h-2.646V9.952l.588.574h-3.71l.574-.574V16h-2.646zm14.426.126c-.644 0-1.195-.14-1.652-.42-.457-.29-.807-.719-1.05-1.288-.233-.579-.35-1.316-.35-2.212 0-.905.112-1.643.336-2.212.224-.579.56-1.008 1.008-1.288.457-.28 1.027-.42 1.708-.42a3.65 3.65 0 011.876.49c.569.317 1.017.77 1.344 1.358.336.579.504 1.27.504 2.072 0 .803-.168 1.498-.504 2.086a3.425 3.425 0 01-1.344 1.358 3.737 3.737 0 01-1.876.476zm-4.774 2.59V8.412h2.534V9.7l-.014 2.506.14 2.52v3.99h-2.66zm4.214-4.704c.299 0 .565-.07.798-.21.243-.14.434-.345.574-.616.149-.27.224-.597.224-.98s-.075-.71-.224-.98a1.467 1.467 0 00-.574-.616 1.519 1.519 0 00-.798-.21c-.299 0-.569.07-.812.21-.233.14-.425.345-.574.616-.14.27-.21.597-.21.98s.07.71.21.98c.149.27.341.476.574.616.243.14.513.21.812.21zm9.299 2.114c-.83 0-1.568-.168-2.212-.504a3.917 3.917 0 01-1.526-1.386c-.364-.597-.546-1.279-.546-2.044 0-.765.182-1.442.546-2.03a3.815 3.815 0 011.526-1.372c.644-.336 1.382-.504 2.212-.504.831 0 1.568.168 2.212.504a3.688 3.688 0 011.526 1.372c.364.588.546 1.265.546 2.03 0 .765-.182 1.447-.546 2.044a3.784 3.784 0 01-1.526 1.386c-.644.336-1.381.504-2.212.504zm0-2.114c.308 0 .579-.07.812-.21.243-.14.434-.345.574-.616.14-.28.21-.611.21-.994s-.07-.705-.21-.966a1.467 1.467 0 00-.574-.616 1.547 1.547 0 00-.812-.21c-.298 0-.569.07-.812.21-.233.14-.424.345-.574.616-.14.261-.21.583-.21.966s.07.714.21.994c.15.27.341.476.574.616.243.14.514.21.812.21zM175.025 16V8.412h6.356v2.114h-4.284l.574-.574V16h-2.646zm12.17.126c-.644 0-1.194-.14-1.652-.42-.457-.29-.807-.719-1.05-1.288-.233-.579-.35-1.316-.35-2.212 0-.905.112-1.643.336-2.212.224-.579.56-1.008 1.008-1.288.458-.28 1.027-.42 1.708-.42a3.65 3.65 0 011.876.49 3.41 3.41 0 011.344 1.358c.336.579.504 1.27.504 2.072 0 .803-.168 1.498-.504 2.086a3.412 3.412 0 01-1.344 1.358 3.737 3.737 0 01-1.876.476zm-4.774 2.59V8.412h2.534V9.7l-.014 2.506.14 2.52v3.99h-2.66zm4.214-4.704c.299 0 .565-.07.798-.21.243-.14.434-.345.574-.616.15-.27.224-.597.224-.98s-.074-.71-.224-.98a1.467 1.467 0 00-.574-.616 1.519 1.519 0 00-.798-.21c-.298 0-.569.07-.812.21-.233.14-.424.345-.574.616-.14.27-.21.597-.21.98s.07.71.21.98c.15.27.341.476.574.616.243.14.514.21.812.21zM196.527 16v-1.414l-.182-.35v-2.604c0-.42-.131-.742-.392-.966-.252-.233-.658-.35-1.218-.35-.364 0-.733.06-1.106.182-.374.112-.691.27-.952.476l-.896-1.806c.429-.28.942-.495 1.54-.644a7.107 7.107 0 011.806-.238c1.232 0 2.184.285 2.856.854.681.56 1.022 1.442 1.022 2.646V16h-2.478zm-2.24.126c-.607 0-1.12-.103-1.54-.308a2.307 2.307 0 01-.966-.84 2.25 2.25 0 01-.322-1.19c0-.467.116-.868.35-1.204.242-.345.611-.607 1.106-.784.494-.187 1.134-.28 1.918-.28h1.792v1.386h-1.428c-.43 0-.733.07-.91.21a.692.692 0 00-.252.56c0 .233.088.42.266.56.177.14.42.21.728.21.289 0 .55-.07.784-.21.242-.15.42-.373.532-.672l.364.98c-.14.523-.416.92-.826 1.19-.402.261-.934.392-1.596.392zm6.318-.126V8.412h2.8l2.646 4.956h-1.106l2.898-4.956h2.506l.014 7.588h-2.394v-4.956l.406.28-2.352 4.004h-1.134l-2.352-4.2.462-.126V16h-2.394zm11.553 0V8.412h2.8l2.646 4.956h-1.106l2.898-4.956h2.506l.014 7.588h-2.394v-4.956l.406.28-2.352 4.004h-1.134l-2.352-4.2.462-.126V16h-2.394zm16.046 0v-1.414l-.182-.35v-2.604c0-.42-.13-.742-.392-.966-.252-.233-.658-.35-1.218-.35-.364 0-.732.06-1.106.182-.373.112-.69.27-.952.476l-.896-1.806c.43-.28.943-.495 1.54-.644a7.118 7.118 0 011.806-.238c1.232 0 2.184.285 2.856.854.682.56 1.022 1.442 1.022 2.646V16h-2.478zm-2.24.126c-.606 0-1.12-.103-1.54-.308a2.307 2.307 0 01-.966-.84 2.26 2.26 0 01-.322-1.19c0-.467.117-.868.35-1.204.243-.345.612-.607 1.106-.784.495-.187 1.134-.28 1.918-.28h1.792v1.386h-1.428c-.429 0-.732.07-.91.21a.692.692 0 00-.252.56c0 .233.089.42.266.56.178.14.42.21.728.21.29 0 .551-.07.784-.21.243-.15.42-.373.532-.672l.364.98c-.14.523-.415.92-.826 1.19-.401.261-.933.392-1.596.392zm-155.9 18.97c-.64 0-1.232-.104-1.776-.312a4.355 4.355 0 01-1.404-.9 4.347 4.347 0 01-.924-1.368 4.292 4.292 0 01-.336-1.716c0-.624.112-1.196.336-1.716.224-.52.536-.972.936-1.356.4-.392.868-.692 1.404-.9a4.77 4.77 0 011.776-.324c.648 0 1.244.112 1.788.336.552.216 1.02.54 1.404.972l-.78.756a3.047 3.047 0 00-1.08-.744 3.282 3.282 0 00-1.284-.252c-.472 0-.912.08-1.32.24a3.092 3.092 0 00-1.74 1.704c-.16.392-.24.82-.24 1.284 0 .464.08.896.24 1.296a3.123 3.123 0 001.74 1.692c.408.16.848.24 1.32.24.456 0 .884-.08 1.284-.24.4-.168.76-.424 1.08-.768l.78.756c-.384.432-.852.76-1.404.984a4.684 4.684 0 01-1.8.336zM78.547 35v-1.344l-.06-.252v-2.292c0-.488-.144-.864-.432-1.128-.28-.272-.704-.408-1.272-.408-.376 0-.744.064-1.104.192a2.76 2.76 0 00-.912.492l-.48-.864c.328-.264.72-.464 1.176-.6a4.87 4.87 0 011.452-.216c.872 0 1.544.212 2.016.636.472.424.708 1.072.708 1.944V35h-1.092zm-2.088.072c-.472 0-.888-.08-1.248-.24a1.927 1.927 0 01-.816-.66 1.713 1.713 0 01-.288-.972c0-.344.08-.656.24-.936.168-.28.436-.504.804-.672.376-.168.88-.252 1.512-.252h2.016v.828h-1.968c-.576 0-.964.096-1.164.288a.93.93 0 00-.3.696.91.91 0 00.372.756c.248.184.592.276 1.032.276.432 0 .808-.096 1.128-.288a1.63 1.63 0 00.708-.84l.228.792a1.82 1.82 0 01-.804.9c-.384.216-.868.324-1.452.324zM81.714 35v-6.36h1.188l2.736 4.704h-.48l2.808-4.704h1.08V35h-1.044v-5.064l.192.108-2.568 4.236h-.504l-2.58-4.32.228-.048V35h-1.056zm13.474 0v-1.344l-.06-.252v-2.292c0-.488-.144-.864-.432-1.128-.28-.272-.704-.408-1.272-.408-.376 0-.744.064-1.104.192a2.76 2.76 0 00-.912.492l-.48-.864c.328-.264.72-.464 1.176-.6a4.87 4.87 0 011.452-.216c.872 0 1.544.212 2.016.636.472.424.708 1.072.708 1.944V35h-1.092zm-2.088.072c-.472 0-.888-.08-1.248-.24a1.927 1.927 0 01-.816-.66 1.713 1.713 0 01-.288-.972c0-.344.08-.656.24-.936.168-.28.436-.504.804-.672.376-.168.88-.252 1.512-.252h2.016v.828h-1.968c-.576 0-.964.096-1.164.288a.93.93 0 00-.3.696.91.91 0 00.372.756c.248.184.592.276 1.032.276.432 0 .808-.096 1.128-.288a1.63 1.63 0 00.708-.84l.228.792a1.82 1.82 0 01-.804.9c-.384.216-.868.324-1.452.324zm8.626 0c-.528 0-1.012-.12-1.452-.36a2.753 2.753 0 01-1.044-1.092c-.256-.48-.384-1.08-.384-1.8s.124-1.32.372-1.8c.256-.48.6-.84 1.032-1.08.44-.24.932-.36 1.476-.36.624 0 1.176.136 1.656.408a3 3 0 011.14 1.14c.28.48.42 1.044.42 1.692 0 .648-.14 1.216-.42 1.704a3 3 0 01-1.14 1.14c-.48.272-1.032.408-1.656.408zm-3.372 2.256V28.64h1.104v1.716l-.072 1.476.12 1.476v4.02h-1.152zm3.276-3.264a2.15 2.15 0 001.092-.276c.328-.184.584-.444.768-.78.192-.344.288-.74.288-1.188 0-.456-.096-.848-.288-1.176a1.948 1.948 0 00-.768-.78 2.15 2.15 0 00-1.092-.276c-.4 0-.764.092-1.092.276-.32.184-.576.444-.768.78-.184.328-.276.72-.276 1.176 0 .448.092.844.276 1.188.192.336.448.596.768.78.328.184.692.276 1.092.276zm7.758 1.008c-.648 0-1.228-.14-1.74-.42-.504-.28-.9-.664-1.188-1.152-.288-.488-.432-1.048-.432-1.68 0-.632.144-1.192.432-1.68a3.016 3.016 0 011.188-1.14c.512-.28 1.092-.42 1.74-.42.576 0 1.088.116 1.536.348.456.224.808.56 1.056 1.008l-.876.564a1.896 1.896 0 00-.768-.684 2.071 2.071 0 00-.96-.228c-.416 0-.788.092-1.116.276a2.03 2.03 0 00-.78.78c-.192.328-.288.72-.288 1.176 0 .456.096.852.288 1.188.192.336.452.596.78.78.328.184.7.276 1.116.276.344 0 .664-.072.96-.216a1.99 1.99 0 00.768-.696l.876.552c-.248.44-.6.78-1.056 1.02-.448.232-.96.348-1.536.348zm8.691-.072l-2.46-3.096.948-.576L119.435 35h-1.356zm-4.608 0v-6.36h1.152V35h-1.152zm.804-2.688v-.984h2.1v.984h-2.1zm2.388-.36l-1.068-.144 2.436-3.168h1.236l-2.604 3.312zM124.426 35v-1.344l-.06-.252v-2.292c0-.488-.144-.864-.432-1.128-.28-.272-.704-.408-1.272-.408-.376 0-.744.064-1.104.192a2.76 2.76 0 00-.912.492l-.48-.864c.328-.264.72-.464 1.176-.6a4.87 4.87 0 011.452-.216c.872 0 1.544.212 2.016.636.472.424.708 1.072.708 1.944V35h-1.092zm-2.088.072c-.472 0-.888-.08-1.248-.24a1.927 1.927 0 01-.816-.66 1.713 1.713 0 01-.288-.972c0-.344.08-.656.24-.936.168-.28.436-.504.804-.672.376-.168.88-.252 1.512-.252h2.016v.828h-1.968c-.576 0-.964.096-1.164.288a.93.93 0 00-.3.696.91.91 0 00.372.756c.248.184.592.276 1.032.276.432 0 .808-.096 1.128-.288a1.63 1.63 0 00.708-.84l.228.792a1.82 1.82 0 01-.804.9c-.384.216-.868.324-1.452.324zm9.323-.072v-2.232l.18.216h-2.028c-.848 0-1.512-.18-1.992-.54-.472-.36-.708-.884-.708-1.572 0-.736.252-1.292.756-1.668.512-.376 1.192-.564 2.04-.564h2.784V35h-1.032zm-4.608 0l1.728-2.436h1.188L128.289 35h-1.236zm4.608-2.592v-3.084l.18.324h-1.896c-.528 0-.936.1-1.224.3-.288.192-.432.512-.432.96 0 .832.536 1.248 1.608 1.248h1.944l-.18.252zm9.226 2.664c-.64 0-1.208-.14-1.704-.42a3.126 3.126 0 01-1.176-1.152 3.284 3.284 0 01-.432-1.68c0-.632.144-1.192.432-1.68.288-.488.68-.868 1.176-1.14.496-.28 1.064-.42 1.704-.42.632 0 1.196.14 1.692.42.504.272.896.652 1.176 1.14.288.48.432 1.04.432 1.68 0 .632-.144 1.192-.432 1.68-.28.488-.672.872-1.176 1.152-.496.28-1.06.42-1.692.42zm0-1.008a2.15 2.15 0 001.092-.276c.328-.184.584-.444.768-.78a2.48 2.48 0 00.276-1.188c0-.456-.092-.848-.276-1.176a1.948 1.948 0 00-.768-.78 2.15 2.15 0 00-1.092-.276 2.15 2.15 0 00-1.092.276c-.32.184-.576.444-.768.78-.192.328-.288.72-.288 1.176 0 .448.096.844.288 1.188.192.336.448.596.768.78.32.184.684.276 1.092.276zm7.903 1.032c-.528 0-.996-.084-1.404-.252a2.8 2.8 0 01-1.032-.744c-.288-.336-.508-.756-.66-1.26-.144-.512-.216-1.112-.216-1.8 0-.544.048-1.032.144-1.464.096-.432.232-.816.408-1.152.184-.336.408-.628.672-.876.272-.248.576-.452.912-.612.344-.168.72-.296 1.128-.384l2.904-.648.168 1.068-2.676.576c-.16.032-.352.08-.576.144a2.972 2.972 0 00-.684.3 2.378 2.378 0 00-.648.54c-.2.232-.36.536-.48.912-.12.368-.18.824-.18 1.368 0 .152.004.268.012.348l.024.24c.016.08.028.2.036.36l-.48-.492c.128-.44.332-.824.612-1.152.28-.328.616-.58 1.008-.756.4-.184.836-.276 1.308-.276.592 0 1.116.128 1.572.384.464.256.828.608 1.092 1.056.264.448.396.96.396 1.536 0 .584-.14 1.108-.42 1.572a2.87 2.87 0 01-1.164 1.08c-.504.256-1.096.384-1.776.384zm.108-.96a2.16 2.16 0 001.08-.264c.312-.184.556-.428.732-.732.176-.312.264-.66.264-1.044s-.088-.724-.264-1.02a1.859 1.859 0 00-.732-.696c-.312-.176-.68-.264-1.104-.264-.4 0-.76.084-1.08.252a1.76 1.76 0 00-.744.684 1.894 1.894 0 00-.264 1.008c0 .384.088.736.264 1.056.184.312.432.56.744.744.32.184.688.276 1.104.276zm3.795.852l.072-.972.156.024a.808.808 0 00.132.012c.256 0 .456-.088.6-.264.152-.176.264-.408.336-.696.072-.296.124-.628.156-.996s.056-.736.072-1.104l.108-2.352h4.884V35h-1.152v-5.688l.276.336h-3.264l.264-.348-.084 1.764c-.024.56-.068 1.084-.132 1.572a5.948 5.948 0 01-.3 1.284c-.128.368-.308.656-.54.864-.224.208-.516.312-.876.312a1.72 1.72 0 01-.336-.036 4.283 4.283 0 01-.372-.072zm12.643.012v-1.344l-.06-.252v-2.292c0-.488-.144-.864-.432-1.128-.28-.272-.704-.408-1.272-.408-.376 0-.744.064-1.104.192a2.76 2.76 0 00-.912.492l-.48-.864c.328-.264.72-.464 1.176-.6a4.87 4.87 0 011.452-.216c.872 0 1.544.212 2.016.636.472.424.708 1.072.708 1.944V35h-1.092zm-2.088.072c-.472 0-.888-.08-1.248-.24a1.927 1.927 0 01-.816-.66 1.713 1.713 0 01-.288-.972c0-.344.08-.656.24-.936.168-.28.436-.504.804-.672.376-.168.88-.252 1.512-.252h2.016v.828H163.5c-.576 0-.964.096-1.164.288a.93.93 0 00-.3.696.91.91 0 00.372.756c.248.184.592.276 1.032.276.432 0 .808-.096 1.128-.288a1.63 1.63 0 00.708-.84l.228.792a1.82 1.82 0 01-.804.9c-.384.216-.868.324-1.452.324zm8.027 0c-.648 0-1.228-.14-1.74-.42-.504-.28-.9-.664-1.188-1.152-.288-.488-.432-1.048-.432-1.68 0-.632.144-1.192.432-1.68a3.016 3.016 0 011.188-1.14c.512-.28 1.092-.42 1.74-.42.576 0 1.088.116 1.536.348.456.224.808.56 1.056 1.008l-.876.564a1.896 1.896 0 00-.768-.684 2.071 2.071 0 00-.96-.228c-.416 0-.788.092-1.116.276a2.03 2.03 0 00-.78.78c-.192.328-.288.72-.288 1.176 0 .456.096.852.288 1.188.192.336.452.596.78.78.328.184.7.276 1.116.276.344 0 .664-.072.96-.216a1.99 1.99 0 00.768-.696l.876.552c-.248.44-.6.78-1.056 1.02-.448.232-.96.348-1.536.348zm5.261-.072v-5.652l.288.3h-2.616V28.64h5.808v1.008h-2.604l.276-.3V35h-1.152zm7.598-4.2c.808.008 1.424.192 1.848.552.424.36.636.868.636 1.524 0 .688-.232 1.22-.696 1.596-.464.368-1.12.548-1.968.54l-2.76-.012v-6.36h1.152v2.148l1.788.012zm-.276 3.336c.52.008.912-.096 1.176-.312.272-.216.408-.536.408-.96 0-.416-.132-.72-.396-.912-.264-.192-.66-.292-1.188-.3l-1.512-.024v2.496l1.512.012z" fill="#1254D3"/></svg>