<?xml version="1.0" encoding="utf-8"?><svg viewBox="0 0 48 40" xmlns="http://www.w3.org/2000/svg" xmlns:xlink="http://www.w3.org/1999/xlink"><style>:root>svg{display:none}:root>svg:target{display:block}</style><svg fill="none" viewBox="0 0 4 6" id="icon-arrow-breadcrumb" xmlns="http://www.w3.org/2000/svg"><path d="M1 5l2-2-2-2" stroke="#838B93" stroke-width="1.5" stroke-linecap="round" stroke-linejoin="round"/></svg><svg fill="none" viewBox="0 0 10 18" id="icon-arrow-more" xmlns="http://www.w3.org/2000/svg"><path d="M1 17l8-8-8-8" stroke="currentColor" stroke-width="1.5" stroke-linecap="round" stroke-linejoin="round"/></svg><svg fill="none" viewBox="0 0 14 26" id="icon-arrow-next" xmlns="http://www.w3.org/2000/svg"><path d="M1 25l12-12L1 1" stroke="currentColor" stroke-width="1.5" stroke-linecap="round" stroke-linejoin="round"/></svg><svg fill="none" viewBox="0 0 14 26" id="icon-arrow-prev" xmlns="http://www.w3.org/2000/svg"><path d="M13 25L1 13 13 1" stroke="currentColor" stroke-width="1.5" stroke-linecap="round" stroke-linejoin="round"/></svg><svg fill="none" viewBox="0 0 14 14" id="icon-home" xmlns="http://www.w3.org/2000/svg"><path d="M5 13H3a2 2 0 01-2-2V6.07a2 2 0 01.89-1.664l4-2.666a2 2 0 012.22 0l4 2.666A2 2 0 0113 6.07V11a2 2 0 01-2 2H9m-4 0V9a2 2 0 012-2v0a2 2 0 012 2v4m-4 0h4" stroke="currentColor" stroke-width="1.5"/></svg><svg fill="none" viewBox="0 0 48 40" id="icon-quote" xmlns="http://www.w3.org/2000/svg"><path d="M13.965 21.362c1.911.67 3.393 1.768 4.444 3.298 1.051 1.529 1.577 3.393 1.577 5.59 0 2.868-.908 5.21-2.724 7.026C15.446 39.092 13.2 40 10.524 40c-2.772 0-5.066-.908-6.882-2.724C1.826 35.364.918 33.023.918 30.251c0-1.338.143-2.676.43-4.014.382-1.434 1.1-3.49 2.15-6.165L10.238 0h9.032l-5.304 21.362zm27.096 0c1.912.67 3.393 1.768 4.445 3.298 1.051 1.529 1.577 3.393 1.577 5.59 0 2.868-.908 5.21-2.724 7.026C42.543 39.092 40.297 40 37.62 40c-2.771 0-5.065-.908-6.881-2.724-1.816-1.912-2.724-4.253-2.724-7.025 0-1.338.143-2.676.43-4.014.382-1.434 1.099-3.49 2.15-6.165L37.334 0h9.032l-5.305 21.362z" fill="#fff"/></svg></svg>