<?xml version="1.0" encoding="utf-8"?><svg viewBox="0 0 48 40" xmlns="http://www.w3.org/2000/svg" xmlns:xlink="http://www.w3.org/1999/xlink"><style>:root>svg{display:none}:root>svg:target{display:block}</style><svg fill="none" viewBox="0 0 4 6" id="icon-arrow-breadcrumb" xmlns="http://www.w3.org/2000/svg"><path d="M1 5l2-2-2-2" stroke="#838B93" stroke-width="1.5" stroke-linecap="round" stroke-linejoin="round"/></svg><svg fill="none" viewBox="0 0 10 18" id="icon-arrow-more" xmlns="http://www.w3.org/2000/svg"><path d="M1 17l8-8-8-8" stroke="currentColor" stroke-width="1.5" stroke-linecap="round" stroke-linejoin="round"/></svg><svg fill="none" viewBox="0 0 14 26" id="icon-arrow-next" xmlns="http://www.w3.org/2000/svg"><path d="M1 25l12-12L1 1" stroke="currentColor" stroke-width="1.5" stroke-linecap="round" stroke-linejoin="round"/></svg><svg fill="none" viewBox="0 0 14 26" id="icon-arrow-prev" xmlns="http://www.w3.org/2000/svg"><path d="M13 25L1 13 13 1" stroke="currentColor" stroke-width="1.5" stroke-linecap="round" stroke-linejoin="round"/></svg><svg fill="none" viewBox="0 0 10 6" id="icon-caret" xmlns="http://www.w3.org/2000/svg"><path d="M1 1l4 4 4-4" stroke="#000" stroke-width="1.5" stroke-linecap="round" stroke-linejoin="round"/></svg><svg fill="none" viewBox="0 0 10 6" id="icon-caret-grey" xmlns="http://www.w3.org/2000/svg"><path d="M1 1l4 4 4-4" stroke="#838B93" stroke-width="1.5" stroke-linecap="round" stroke-linejoin="round"/></svg><svg fill="none" viewBox="0 0 10 10" id="icon-clear" xmlns="http://www.w3.org/2000/svg"><path d="M9 1L1 9m0-8l8 8" stroke="currentColor" stroke-width="1.5" stroke-linecap="round" stroke-linejoin="round"/></svg><svg fill="none" viewBox="0 0 14 14" id="icon-close" xmlns="http://www.w3.org/2000/svg"><path d="M13 1L1 13M1 1l12 12" stroke="currentColor" stroke-width="1.5" stroke-linecap="round" stroke-linejoin="round"/></svg><svg fill="none" viewBox="0 0 16 14" id="icon-email" xmlns="http://www.w3.org/2000/svg"><path d="M1 4v7a2 2 0 002 2h10a2 2 0 002-2V4M1 4V3a2 2 0 012-2h10a2 2 0 012 2v1M1 4l6.008 3.433a2 2 0 001.984 0L15 4" stroke="currentColor" stroke-width="1.5"/></svg><svg fill="none" viewBox="0 0 24 24" id="icon-filter" xmlns="http://www.w3.org/2000/svg"><path d="M5 20v-6m.004-3L5 4m7.003 16v-8m0-3.556V4M2 14h6.004m1.272-5.556h5.454M19 20v-3m0 0h-3m3 0h3.004m-3-3L19 4" stroke="currentColor" stroke-width="1.5" stroke-linecap="round" stroke-linejoin="round"/></svg><svg fill="none" viewBox="0 0 14 14" id="icon-home" xmlns="http://www.w3.org/2000/svg"><path d="M5 13H3a2 2 0 01-2-2V6.07a2 2 0 01.89-1.664l4-2.666a2 2 0 012.22 0l4 2.666A2 2 0 0113 6.07V11a2 2 0 01-2 2H9m-4 0V9a2 2 0 012-2v0a2 2 0 012 2v4m-4 0h4" stroke="currentColor" stroke-width="1.5"/></svg><svg fill="none" viewBox="0 0 16 12" id="icon-list" xmlns="http://www.w3.org/2000/svg"><path d="M1 11h14M1 6h14M1 1h14" stroke="currentColor" stroke-width="1.5" stroke-linecap="round"/></svg><svg fill="none" viewBox="0 0 20 7" id="icon-map-caret" xmlns="http://www.w3.org/2000/svg"><path d="M0 0h20l-4.343 4.343a8 8 0 01-11.314 0L0 0z" fill="#fff"/></svg><svg fill="none" viewBox="0 0 10 10" id="icon-mark" xmlns="http://www.w3.org/2000/svg"><path d="M8.334 2.5L3.75 7.083 1.667 5" stroke="#1254D3" stroke-width="1.5" stroke-linecap="round" stroke-linejoin="round"/></svg><svg fill="none" viewBox="0 0 10 16" id="icon-ok" xmlns="http://www.w3.org/2000/svg"><path d="M5.019 8.257c2.205 0 4.003-1.776 4.003-3.954S7.224.35 5.02.35C2.813.35.99 2.125.99 4.303s1.798 3.954 4.028 3.954zm0-5.587c.91 0 1.654.734 1.654 1.633 0 .9-.743 1.634-1.654 1.634a1.647 1.647 0 01-1.655-1.634c-.024-.9.72-1.633 1.655-1.633zM6.625 11.5a7.63 7.63 0 002.325-.946c.552-.332.72-1.066.36-1.61-.336-.545-1.079-.71-1.63-.355a5.145 5.145 0 01-5.394 0 1.203 1.203 0 00-1.63.355 1.172 1.172 0 00.407 1.586c.72.45 1.51.758 2.325.947l-2.23 2.202a1.147 1.147 0 00.84 1.965c.312 0 .6-.119.839-.332l2.206-2.178 2.205 2.178c.456.45 1.199.45 1.654 0a1.147 1.147 0 000-1.633L6.625 11.5z" fill="currentColor"/></svg><svg fill="none" viewBox="0 0 48 40" id="icon-quote" xmlns="http://www.w3.org/2000/svg"><path d="M13.965 21.362c1.911.67 3.393 1.768 4.444 3.298 1.051 1.529 1.577 3.393 1.577 5.59 0 2.868-.908 5.21-2.724 7.026C15.446 39.092 13.2 40 10.524 40c-2.772 0-5.066-.908-6.882-2.724C1.826 35.364.918 33.023.918 30.251c0-1.338.143-2.676.43-4.014.382-1.434 1.1-3.49 2.15-6.165L10.238 0h9.032l-5.304 21.362zm27.096 0c1.912.67 3.393 1.768 4.445 3.298 1.051 1.529 1.577 3.393 1.577 5.59 0 2.868-.908 5.21-2.724 7.026C42.543 39.092 40.297 40 37.62 40c-2.771 0-5.065-.908-6.881-2.724-1.816-1.912-2.724-4.253-2.724-7.025 0-1.338.143-2.676.43-4.014.382-1.434 1.099-3.49 2.15-6.165L37.334 0h9.032l-5.305 21.362z" fill="#fff"/></svg><svg fill="none" viewBox="0 0 16 16" id="icon-search" xmlns="http://www.w3.org/2000/svg"><path d="M15 15l-3.383-3.383m1.827-4.395A6.222 6.222 0 111 7.222a6.222 6.222 0 0112.444 0z" stroke="currentColor" stroke-width="1.5" stroke-linecap="round" stroke-linejoin="round"/></svg><svg fill="none" viewBox="0 0 23 16" id="icon-status-done" xmlns="http://www.w3.org/2000/svg"><rect x="6" y="4" width="1.5" height="8" rx=".75" fill="#2AB150"/><rect x="10.5" y="4" width="1.5" height="8" rx=".75" fill="#2AB150"/><rect x="15" y="4" width="1.5" height="8" rx=".75" fill="#2AB150"/><rect x=".75" y=".75" width="21" height="14.5" rx="3.25" stroke="#2AB150" stroke-width="1.5"/></svg><svg fill="none" viewBox="0 0 23 16" id="icon-status-plan" xmlns="http://www.w3.org/2000/svg"><rect x="6" y="4" width="1.5" height="8" rx=".75" fill="#ED671B"/><rect x="10.5" y="4" width="1.5" height="8" rx=".75" fill="#ED671B" fill-opacity=".4"/><rect x="15" y="4" width="1.5" height="8" rx=".75" fill="#ED671B" fill-opacity=".4"/><rect x=".75" y=".75" width="21" height="14.5" rx="3.25" stroke="#ED671B" stroke-width="1.5"/></svg><svg fill="none" viewBox="0 0 23 16" id="icon-status-w-done" xmlns="http://www.w3.org/2000/svg"><rect x="6" y="4" width="1.5" height="8" rx=".75" fill="#fff"/><rect x="10.5" y="4" width="1.5" height="8" rx=".75" fill="#fff"/><rect x="15" y="4" width="1.5" height="8" rx=".75" fill="#fff"/><rect x=".75" y=".75" width="21" height="14.5" rx="3.25" stroke="#fff" stroke-width="1.5"/></svg><svg fill="none" viewBox="0 0 23 16" id="icon-status-w-plan" xmlns="http://www.w3.org/2000/svg"><rect x="6" y="4" width="1.5" height="8" rx=".75" fill="#fff"/><rect x="10.5" y="4" width="1.5" height="8" rx=".75" fill="#fff" fill-opacity=".4"/><rect x="15" y="4" width="1.5" height="8" rx=".75" fill="#fff" fill-opacity=".4"/><rect x=".75" y=".75" width="21" height="14.5" rx="3.25" stroke="#fff" stroke-width="1.5"/></svg><svg fill="none" viewBox="0 0 23 16" id="icon-status-w-work" xmlns="http://www.w3.org/2000/svg"><rect x="6" y="4" width="1.5" height="8" rx=".75" fill="#fff"/><rect x="10.5" y="4" width="1.5" height="8" rx=".75" fill="#fff"/><rect x="15" y="4" width="1.5" height="8" rx=".75" fill="#fff" fill-opacity=".4"/><rect x=".75" y=".75" width="21" height="14.5" rx="3.25" stroke="#fff" stroke-width="1.5"/></svg><svg fill="none" viewBox="0 0 23 16" id="icon-status-work" xmlns="http://www.w3.org/2000/svg"><rect x="6" y="4" width="1.5" height="8" rx=".75" fill="#F5BF31"/><rect x="10.5" y="4" width="1.5" height="8" rx=".75" fill="#F5BF31"/><rect x="15" y="4" width="1.5" height="8" rx=".75" fill="#E6AF22" fill-opacity=".4"/><rect x=".75" y=".75" width="21" height="14.5" rx="3.25" stroke="#F5BF31" stroke-width="1.5"/></svg><svg fill="none" viewBox="0 0 12 18" id="icon-tel" xmlns="http://www.w3.org/2000/svg"><path d="M5 13h2m-4 4h6a2 2 0 002-2V3a2 2 0 00-2-2H3a2 2 0 00-2 2v12a2 2 0 002 2z" stroke="currentColor" stroke-width="1.5" stroke-linecap="round"/></svg><svg fill="none" viewBox="0 0 16 16" id="icon-telegram" xmlns="http://www.w3.org/2000/svg"><path fill-rule="evenodd" clip-rule="evenodd" d="M1.75 7.176c3.887-1.689 6.474-2.81 7.774-3.355C13.222 2.278 14 2.011 14.499 2c.111 0 .356.022.522.155.134.112.167.256.19.367.021.111.044.344.021.522-.2 2.11-1.066 7.23-1.51 9.585-.189 1-.555 1.332-.91 1.366-.778.066-1.367-.511-2.11-1-1.178-.766-1.833-1.244-2.977-1.999-1.322-.866-.467-1.344.288-2.121.2-.2 3.61-3.31 3.677-3.588.01-.033.01-.166-.067-.233-.078-.066-.189-.044-.278-.022-.122.022-1.988 1.266-5.62 3.72-.533.367-1.01.545-1.443.534-.478-.011-1.389-.267-2.077-.489-.833-.267-1.5-.41-1.444-.877.033-.245.367-.49.989-.744z" fill="currentColor"/></svg><svg fill="none" viewBox="0 0 16 10" id="icon-vk" xmlns="http://www.w3.org/2000/svg"><path d="M.5.32c.122 5.847 3.045 9.36 8.17 9.36h.29V6.335c1.884.188 3.308 1.565 3.88 3.345h2.66c-.73-2.66-2.652-4.132-3.85-4.694 1.198-.693 2.885-2.38 3.288-4.666H12.52c-.524 1.855-2.08 3.542-3.56 3.701v-3.7H6.543v6.483C5.044 6.429 3.151 4.61 3.067.32H.5z" fill="currentColor"/></svg></svg>