<?xml version="1.0" encoding="utf-8"?><svg viewBox="0 0 14 26" xmlns="http://www.w3.org/2000/svg" xmlns:xlink="http://www.w3.org/1999/xlink"><style>:root>svg{display:none}:root>svg:target{display:block}</style><svg fill="none" viewBox="0 0 4 6" id="icon-arrow-breadcrumb" xmlns="http://www.w3.org/2000/svg"><path d="M1 5l2-2-2-2" stroke="#838B93" stroke-width="1.5" stroke-linecap="round" stroke-linejoin="round"/></svg><svg fill="none" viewBox="0 0 10 18" id="icon-arrow-more" xmlns="http://www.w3.org/2000/svg"><path d="M1 17l8-8-8-8" stroke="currentColor" stroke-width="1.5" stroke-linecap="round" stroke-linejoin="round"/></svg><svg fill="none" viewBox="0 0 14 26" id="icon-arrow-next" xmlns="http://www.w3.org/2000/svg"><path d="M1 25l12-12L1 1" stroke="currentColor" stroke-width="1.5" stroke-linecap="round" stroke-linejoin="round"/></svg><svg fill="none" viewBox="0 0 14 26" id="icon-arrow-prev" xmlns="http://www.w3.org/2000/svg"><path d="M13 25L1 13 13 1" stroke="currentColor" stroke-width="1.5" stroke-linecap="round" stroke-linejoin="round"/></svg><svg fill="none" viewBox="0 0 14 14" id="icon-home" xmlns="http://www.w3.org/2000/svg"><path d="M5 13H3a2 2 0 01-2-2V6.07a2 2 0 01.89-1.664l4-2.666a2 2 0 012.22 0l4 2.666A2 2 0 0113 6.07V11a2 2 0 01-2 2H9m-4 0V9a2 2 0 012-2v0a2 2 0 012 2v4m-4 0h4" stroke="currentColor" stroke-width="1.5"/></svg></svg>